<mxfile host="app.diagrams.net" agent="Mozilla/5.0 (Windows NT 10.0; Win64; x64) AppleWebKit/537.36 (KHTML, like Gecko) Chrome/139.0.0.0 Safari/537.36" version="28.1.0" pages="2">
  <diagram id="g3efRKUIFH3CFgadWszy" name="Versiones">
    <mxGraphModel dx="1209" dy="765" grid="1" gridSize="10" guides="1" tooltips="1" connect="1" arrows="1" fold="1" page="1" pageScale="1" pageWidth="827" pageHeight="1169" math="0" shadow="0">
      <root>
        <mxCell id="0" />
        <mxCell id="1" parent="0" />
        <mxCell id="QOJwp3pk0zYt3Cambvdv-1" value="" style="shape=table;startSize=0;container=1;collapsible=0;childLayout=tableLayout;fontFamily=Roboto;fontSource=https://fonts.googleapis.com/css?family=Roboto;fontSize=16;strokeWidth=1;align=left;" parent="1" vertex="1">
          <mxGeometry x="80" y="101" width="1010" height="344.00000000000045" as="geometry" />
        </mxCell>
        <mxCell id="QOJwp3pk0zYt3Cambvdv-2" value="" style="shape=partialRectangle;collapsible=0;dropTarget=0;pointerEvents=0;fillColor=none;top=0;left=0;bottom=0;right=0;points=[[0,0.5],[1,0.5]];portConstraint=eastwest;fontFamily=Roboto;fontSource=https://fonts.googleapis.com/css?family=Roboto;fontSize=16;strokeWidth=1;" parent="QOJwp3pk0zYt3Cambvdv-1" vertex="1">
          <mxGeometry width="1010" height="58" as="geometry" />
        </mxCell>
        <mxCell id="QOJwp3pk0zYt3Cambvdv-3" value="NOMBRE" style="shape=partialRectangle;html=1;whiteSpace=wrap;connectable=0;overflow=hidden;fillColor=none;top=0;left=0;bottom=0;right=0;pointerEvents=1;fontFamily=Roboto;fontSource=https://fonts.googleapis.com/css?family=Roboto;fontSize=16;strokeWidth=1;" parent="QOJwp3pk0zYt3Cambvdv-2" vertex="1">
          <mxGeometry width="356" height="58" as="geometry">
            <mxRectangle width="356" height="58" as="alternateBounds" />
          </mxGeometry>
        </mxCell>
        <mxCell id="QOJwp3pk0zYt3Cambvdv-4" value="FECHA" style="shape=partialRectangle;html=1;whiteSpace=wrap;connectable=0;overflow=hidden;fillColor=none;top=0;left=0;bottom=0;right=0;pointerEvents=1;fontFamily=Roboto;fontSource=https://fonts.googleapis.com/css?family=Roboto;fontSize=16;strokeWidth=1;" parent="QOJwp3pk0zYt3Cambvdv-2" vertex="1">
          <mxGeometry x="356" width="109" height="58" as="geometry">
            <mxRectangle width="109" height="58" as="alternateBounds" />
          </mxGeometry>
        </mxCell>
        <mxCell id="QOJwp3pk0zYt3Cambvdv-5" value="VERSION" style="shape=partialRectangle;html=1;whiteSpace=wrap;connectable=0;overflow=hidden;fillColor=none;top=0;left=0;bottom=0;right=0;pointerEvents=1;fontFamily=Roboto;fontSource=https://fonts.googleapis.com/css?family=Roboto;fontSize=16;strokeWidth=1;" parent="QOJwp3pk0zYt3Cambvdv-2" vertex="1">
          <mxGeometry x="465" width="80" height="58" as="geometry">
            <mxRectangle width="80" height="58" as="alternateBounds" />
          </mxGeometry>
        </mxCell>
        <mxCell id="QOJwp3pk0zYt3Cambvdv-6" value="COMENTARIO" style="shape=partialRectangle;html=1;whiteSpace=wrap;connectable=0;overflow=hidden;fillColor=none;top=0;left=0;bottom=0;right=0;pointerEvents=1;fontFamily=Roboto;fontSource=https://fonts.googleapis.com/css?family=Roboto;fontSize=16;strokeWidth=1;" parent="QOJwp3pk0zYt3Cambvdv-2" vertex="1">
          <mxGeometry x="545" width="465" height="58" as="geometry">
            <mxRectangle width="465" height="58" as="alternateBounds" />
          </mxGeometry>
        </mxCell>
        <mxCell id="QOJwp3pk0zYt3Cambvdv-7" value="" style="shape=partialRectangle;collapsible=0;dropTarget=0;pointerEvents=0;fillColor=none;top=0;left=0;bottom=0;right=0;points=[[0,0.5],[1,0.5]];portConstraint=eastwest;fontFamily=Roboto;fontSource=https://fonts.googleapis.com/css?family=Roboto;fontSize=16;strokeWidth=1;" parent="QOJwp3pk0zYt3Cambvdv-1" vertex="1">
          <mxGeometry y="58" width="1010" height="57" as="geometry" />
        </mxCell>
        <mxCell id="QOJwp3pk0zYt3Cambvdv-8" value="Mayra Rodríguez García" style="shape=partialRectangle;html=1;whiteSpace=wrap;connectable=0;overflow=hidden;fillColor=none;top=0;left=0;bottom=0;right=0;pointerEvents=1;fontFamily=Roboto;fontSource=https://fonts.googleapis.com/css?family=Roboto;fontSize=16;strokeWidth=1;" parent="QOJwp3pk0zYt3Cambvdv-7" vertex="1">
          <mxGeometry width="356" height="57" as="geometry">
            <mxRectangle width="356" height="57" as="alternateBounds" />
          </mxGeometry>
        </mxCell>
        <mxCell id="QOJwp3pk0zYt3Cambvdv-9" value="05/05/2025" style="shape=partialRectangle;html=1;whiteSpace=wrap;connectable=0;overflow=hidden;fillColor=none;top=0;left=0;bottom=0;right=0;pointerEvents=1;fontFamily=Roboto;fontSource=https://fonts.googleapis.com/css?family=Roboto;fontSize=16;strokeWidth=1;" parent="QOJwp3pk0zYt3Cambvdv-7" vertex="1">
          <mxGeometry x="356" width="109" height="57" as="geometry">
            <mxRectangle width="109" height="57" as="alternateBounds" />
          </mxGeometry>
        </mxCell>
        <mxCell id="QOJwp3pk0zYt3Cambvdv-10" value="1.0" style="shape=partialRectangle;html=1;whiteSpace=wrap;connectable=0;overflow=hidden;fillColor=none;top=0;left=0;bottom=0;right=0;pointerEvents=1;fontFamily=Roboto;fontSource=https://fonts.googleapis.com/css?family=Roboto;fontSize=16;strokeWidth=1;" parent="QOJwp3pk0zYt3Cambvdv-7" vertex="1">
          <mxGeometry x="465" width="80" height="57" as="geometry">
            <mxRectangle width="80" height="57" as="alternateBounds" />
          </mxGeometry>
        </mxCell>
        <mxCell id="QOJwp3pk0zYt3Cambvdv-11" value="Creación del Documento" style="shape=partialRectangle;html=1;whiteSpace=wrap;connectable=0;overflow=hidden;fillColor=none;top=0;left=0;bottom=0;right=0;pointerEvents=1;fontFamily=Roboto;fontSource=https://fonts.googleapis.com/css?family=Roboto;fontSize=16;strokeWidth=1;align=left;" parent="QOJwp3pk0zYt3Cambvdv-7" vertex="1">
          <mxGeometry x="545" width="465" height="57" as="geometry">
            <mxRectangle width="465" height="57" as="alternateBounds" />
          </mxGeometry>
        </mxCell>
        <mxCell id="QOJwp3pk0zYt3Cambvdv-12" value="" style="shape=partialRectangle;collapsible=0;dropTarget=0;pointerEvents=0;fillColor=none;top=0;left=0;bottom=0;right=0;points=[[0,0.5],[1,0.5]];portConstraint=eastwest;fontFamily=Roboto;fontSource=https://fonts.googleapis.com/css?family=Roboto;fontSize=16;strokeWidth=1;" parent="QOJwp3pk0zYt3Cambvdv-1" vertex="1">
          <mxGeometry y="115" width="1010" height="114" as="geometry" />
        </mxCell>
        <mxCell id="QOJwp3pk0zYt3Cambvdv-13" value="Mayra Rodríguez García" style="shape=partialRectangle;html=1;whiteSpace=wrap;connectable=0;overflow=hidden;fillColor=none;top=0;left=0;bottom=0;right=0;pointerEvents=1;fontFamily=Roboto;fontSource=https://fonts.googleapis.com/css?family=Roboto;fontSize=16;strokeWidth=1;" parent="QOJwp3pk0zYt3Cambvdv-12" vertex="1">
          <mxGeometry width="356" height="114" as="geometry">
            <mxRectangle width="356" height="114" as="alternateBounds" />
          </mxGeometry>
        </mxCell>
        <mxCell id="QOJwp3pk0zYt3Cambvdv-14" value="07/05/2025" style="shape=partialRectangle;html=1;whiteSpace=wrap;connectable=0;overflow=hidden;fillColor=none;top=0;left=0;bottom=0;right=0;pointerEvents=1;fontFamily=Roboto;fontSource=https://fonts.googleapis.com/css?family=Roboto;fontSize=16;strokeWidth=1;" parent="QOJwp3pk0zYt3Cambvdv-12" vertex="1">
          <mxGeometry x="356" width="109" height="114" as="geometry">
            <mxRectangle width="109" height="114" as="alternateBounds" />
          </mxGeometry>
        </mxCell>
        <mxCell id="QOJwp3pk0zYt3Cambvdv-15" value="1.1" style="shape=partialRectangle;html=1;whiteSpace=wrap;connectable=0;overflow=hidden;fillColor=none;top=0;left=0;bottom=0;right=0;pointerEvents=1;fontFamily=Roboto;fontSource=https://fonts.googleapis.com/css?family=Roboto;fontSize=16;strokeWidth=1;" parent="QOJwp3pk0zYt3Cambvdv-12" vertex="1">
          <mxGeometry x="465" width="80" height="114" as="geometry">
            <mxRectangle width="80" height="114" as="alternateBounds" />
          </mxGeometry>
        </mxCell>
        <mxCell id="QOJwp3pk0zYt3Cambvdv-16" value="Lynx-&amp;nbsp;LMPJ -&amp;nbsp;Consulta de Mov por Num Autorización&lt;div&gt;&lt;ul&gt;&lt;li&gt;&lt;font&gt;Se esta revisando con Plard que API utilizar (&lt;span style=&quot;font-family: Calibri; white-space-collapse: preserve; background-color: rgb(255, 255, 255);&quot;&gt;Card Transaction Authorizations)&lt;/span&gt;&lt;/font&gt;&lt;/li&gt;&lt;/ul&gt;&lt;/div&gt;" style="shape=partialRectangle;html=1;whiteSpace=wrap;connectable=0;overflow=hidden;fillColor=none;top=0;left=0;bottom=0;right=0;pointerEvents=1;fontFamily=Roboto;fontSource=https://fonts.googleapis.com/css?family=Roboto;fontSize=16;strokeWidth=1;align=left;" parent="QOJwp3pk0zYt3Cambvdv-12" vertex="1">
          <mxGeometry x="545" width="465" height="114" as="geometry">
            <mxRectangle width="465" height="114" as="alternateBounds" />
          </mxGeometry>
        </mxCell>
        <mxCell id="QOJwp3pk0zYt3Cambvdv-17" style="shape=partialRectangle;collapsible=0;dropTarget=0;pointerEvents=0;fillColor=none;top=0;left=0;bottom=0;right=0;points=[[0,0.5],[1,0.5]];portConstraint=eastwest;fontFamily=Roboto;fontSource=https://fonts.googleapis.com/css?family=Roboto;fontSize=16;strokeWidth=1;" parent="QOJwp3pk0zYt3Cambvdv-1" vertex="1">
          <mxGeometry y="229" width="1010" height="57" as="geometry" />
        </mxCell>
        <mxCell id="QOJwp3pk0zYt3Cambvdv-18" value="Christopher Valencia Mendoza" style="shape=partialRectangle;html=1;whiteSpace=wrap;connectable=0;overflow=hidden;fillColor=none;top=0;left=0;bottom=0;right=0;pointerEvents=1;fontFamily=Roboto;fontSource=https://fonts.googleapis.com/css?family=Roboto;fontSize=16;strokeWidth=1;" parent="QOJwp3pk0zYt3Cambvdv-17" vertex="1">
          <mxGeometry width="356" height="57" as="geometry">
            <mxRectangle width="356" height="57" as="alternateBounds" />
          </mxGeometry>
        </mxCell>
        <mxCell id="QOJwp3pk0zYt3Cambvdv-19" value="18/08/2025" style="shape=partialRectangle;html=1;whiteSpace=wrap;connectable=0;overflow=hidden;fillColor=none;top=0;left=0;bottom=0;right=0;pointerEvents=1;fontFamily=Roboto;fontSource=https://fonts.googleapis.com/css?family=Roboto;fontSize=16;strokeWidth=1;" parent="QOJwp3pk0zYt3Cambvdv-17" vertex="1">
          <mxGeometry x="356" width="109" height="57" as="geometry">
            <mxRectangle width="109" height="57" as="alternateBounds" />
          </mxGeometry>
        </mxCell>
        <mxCell id="QOJwp3pk0zYt3Cambvdv-20" value="2.0" style="shape=partialRectangle;html=1;whiteSpace=wrap;connectable=0;overflow=hidden;fillColor=none;top=0;left=0;bottom=0;right=0;pointerEvents=1;fontFamily=Roboto;fontSource=https://fonts.googleapis.com/css?family=Roboto;fontSize=16;strokeWidth=1;" parent="QOJwp3pk0zYt3Cambvdv-17" vertex="1">
          <mxGeometry x="465" width="80" height="57" as="geometry">
            <mxRectangle width="80" height="57" as="alternateBounds" />
          </mxGeometry>
        </mxCell>
        <mxCell id="QOJwp3pk0zYt3Cambvdv-21" value="LMPJ -&amp;nbsp;Consulta de Movimientos LYNX por Número de Autorización (ID autorizacion Stratos)" style="shape=partialRectangle;html=1;whiteSpace=wrap;connectable=0;overflow=hidden;fillColor=none;top=0;left=0;bottom=0;right=0;pointerEvents=1;fontFamily=Roboto;fontSource=https://fonts.googleapis.com/css?family=Roboto;fontSize=16;strokeWidth=1;align=left;" parent="QOJwp3pk0zYt3Cambvdv-17" vertex="1">
          <mxGeometry x="545" width="465" height="57" as="geometry">
            <mxRectangle width="465" height="57" as="alternateBounds" />
          </mxGeometry>
        </mxCell>
        <mxCell id="QOJwp3pk0zYt3Cambvdv-22" style="shape=partialRectangle;collapsible=0;dropTarget=0;pointerEvents=0;fillColor=none;top=0;left=0;bottom=0;right=0;points=[[0,0.5],[1,0.5]];portConstraint=eastwest;fontFamily=Roboto;fontSource=https://fonts.googleapis.com/css?family=Roboto;fontSize=16;strokeWidth=1;" parent="QOJwp3pk0zYt3Cambvdv-1" vertex="1">
          <mxGeometry y="286" width="1010" height="58" as="geometry" />
        </mxCell>
        <mxCell id="QOJwp3pk0zYt3Cambvdv-23" style="shape=partialRectangle;html=1;whiteSpace=wrap;connectable=0;overflow=hidden;fillColor=none;top=0;left=0;bottom=0;right=0;pointerEvents=1;fontFamily=Roboto;fontSource=https://fonts.googleapis.com/css?family=Roboto;fontSize=16;strokeWidth=1;" parent="QOJwp3pk0zYt3Cambvdv-22" vertex="1">
          <mxGeometry width="356" height="58" as="geometry">
            <mxRectangle width="356" height="58" as="alternateBounds" />
          </mxGeometry>
        </mxCell>
        <mxCell id="QOJwp3pk0zYt3Cambvdv-24" style="shape=partialRectangle;html=1;whiteSpace=wrap;connectable=0;overflow=hidden;fillColor=none;top=0;left=0;bottom=0;right=0;pointerEvents=1;fontFamily=Roboto;fontSource=https://fonts.googleapis.com/css?family=Roboto;fontSize=16;strokeWidth=1;" parent="QOJwp3pk0zYt3Cambvdv-22" vertex="1">
          <mxGeometry x="356" width="109" height="58" as="geometry">
            <mxRectangle width="109" height="58" as="alternateBounds" />
          </mxGeometry>
        </mxCell>
        <mxCell id="QOJwp3pk0zYt3Cambvdv-25" style="shape=partialRectangle;html=1;whiteSpace=wrap;connectable=0;overflow=hidden;fillColor=none;top=0;left=0;bottom=0;right=0;pointerEvents=1;fontFamily=Roboto;fontSource=https://fonts.googleapis.com/css?family=Roboto;fontSize=16;strokeWidth=1;" parent="QOJwp3pk0zYt3Cambvdv-22" vertex="1">
          <mxGeometry x="465" width="80" height="58" as="geometry">
            <mxRectangle width="80" height="58" as="alternateBounds" />
          </mxGeometry>
        </mxCell>
        <mxCell id="QOJwp3pk0zYt3Cambvdv-26" style="shape=partialRectangle;html=1;whiteSpace=wrap;connectable=0;overflow=hidden;fillColor=none;top=0;left=0;bottom=0;right=0;pointerEvents=1;fontFamily=Roboto;fontSource=https://fonts.googleapis.com/css?family=Roboto;fontSize=16;strokeWidth=1;align=left;" parent="QOJwp3pk0zYt3Cambvdv-22" vertex="1">
          <mxGeometry x="545" width="465" height="58" as="geometry">
            <mxRectangle width="465" height="58" as="alternateBounds" />
          </mxGeometry>
        </mxCell>
        <mxCell id="QOJwp3pk0zYt3Cambvdv-27" value="&lt;font style=&quot;font-size: 20px;&quot;&gt;CONTROL DE VERSIONES&lt;/font&gt;" style="rounded=0;whiteSpace=wrap;html=1;fontColor=#FFFFFF;labelBackgroundColor=none;fillColor=#36393D;fontSize=20;align=left;" parent="1" vertex="1">
          <mxGeometry x="80" y="50" width="1010" height="41" as="geometry" />
        </mxCell>
      </root>
    </mxGraphModel>
  </diagram>
  <diagram name="LYNX - LMPJ" id="2YBvvXClWsGukQMizWep">
    <mxGraphModel dx="1965" dy="1243" grid="1" gridSize="10" guides="1" tooltips="1" connect="1" arrows="1" fold="1" page="1" pageScale="1" pageWidth="850" pageHeight="1100" math="0" shadow="0">
      <root>
        <mxCell id="0" />
        <mxCell id="1" parent="0" />
        <mxCell id="Bnk67_aWibF8yN_9XxKm-1" value="&lt;span style=&quot;text-align: left;&quot;&gt;MODELO FUNCIONAL DE SECUENCIA -&amp;nbsp;&lt;/span&gt;&lt;span style=&quot;color: light-dark(rgb(0, 0, 0), rgb(0, 0, 0)); text-align: left;&quot;&gt;PLARD&amp;nbsp;&lt;/span&gt;&lt;span style=&quot;text-align: left;&quot;&gt;LYNX&lt;/span&gt;&lt;span style=&quot;text-align: left;&quot;&gt;&amp;nbsp;-&amp;nbsp;&lt;/span&gt;&lt;font style=&quot;color: rgb(0, 0, 0);&quot;&gt;LMPJ&lt;/font&gt;" style="rounded=0;whiteSpace=wrap;html=1;align=center;fontSize=16;fontStyle=1" parent="1" vertex="1">
          <mxGeometry x="21" y="202" width="2721" height="79" as="geometry" />
        </mxCell>
        <mxCell id="Bnk67_aWibF8yN_9XxKm-202" value="&lt;img alt=&quot;&quot; src=&quot;data:image/png;base64,iVBORw0KGgoAAAANSUhEUgAAAOgAAABXCAYAAAAONQnYAAAAAXNSR0IArs4c6QAAAARnQU1BAACxjwv8YQUAAAAJcEhZcwAAFxEAABcRAcom8z8AACX3SURBVHhe7Z0JmBTVtcdPL9N797BIFEWFqIiAskgU0IggGiMvbhF5aDQmrnFHBBVRjGwSQEUNboDGGBeeu2ERVBCVXYFhBGbt6a7uWnudGTZR6v1PTzEOAwPTQ4+A1P/7zlfLPXWreub++pxbdes2mTJlypQpU6ZMmTJlypQpU6ZMmTJlypQpU6ZMmTJlypQpU6ZMmTJlqokqpEKH1lrz89LYZcpU47WI+tkjdHlrJW9wd9l2zcCY/U9nB+nPLqPYVHayhNzasUGvcH4ooFwUDqhDQ375CSxfLW4h9jN8TJnat3Qia4L+51zZdtk/ZPvlMyT7Ve/K9qvXxB3XKJrjmk9C7r8ea7iaykLlPvG8cL48N+xXhEhAVYSAmhQCmi600PTyFsr1hpspU/tWMV0cSNove3tb3mA9lXeVnswboicdQ/Wtjj/riuPabyOuIccbrqayUIU3ckesRVrX8lO6lB/XRZiUn9RD+cqOsoB8reFmytS+FaberZL2yxdsB6BS3hW6DEhlxxA95fgTltesFNzXtjNcTWWhoC9yWzRf1dlC+RJM1iP5MT2cr243ATXVaIXo3JYp++VztgBME9DcyQTUVE5kAto8MgHNocJErXYSOY3NI0omoM0jE9DcyKIRdUoRvRIjegTrfmP/ESMT0ObRoQCoTrqlhOLHl5PYr5SUK8spenMpSSNLKPo7w+XQVoioZZzo/R/xWdJE25JEY3Uij1F8RMgEtHl0MAEtoIKjyylyaTlJU2ELg6SUV5CaCpG2TaSkXkryDMP10JZE5E0QPQE4t+wApAB0G6Lok9j/K8PlFy8T0OZRuU+4+ecGtJCiJ4QpdiPsgyDJ8Shg1GiLrlC1HqW0HiRNj1AyFSR1snHIoa8oIqaK9BaRdPP3NZDuBKQzKomOMlx+VhUSOYrJ1yZJ+R0k8nZVKb9nglr8VqWjB6l0zCUqHTdIoXa/i1GHs2TqeEaSOnYoo1/nG4dnreYENEzD3FHXAydIeaO7iPZxvWTn+Askx7hBomPCJYJj4qCoc8rvZPvU3pG8p7qLjmmdo64XT9BaT/JzamZU0WjxMWvpNa/qmdc24pjTUfDOPUN0L+gV8i4cKHgWDBI8n11SY58PCjm/uEjwL+8d8XzdI0iLWhhV7FeraXVekbvoONFX3DnqKekZ8hah7tJBFbAST/BiwS30rvCJncu8ZUeHvMI9kXxl588BaOa6SBoUInVeiGJbGEoVUCK1rS4lcR1sZhlFH0I0vXsjRa8JkdTFOPTwUJDIBSiHA84ER1JE1B8B7CyA29ZwaRYhnbag/9syRo7TFHJcmbQ67k9Y3FNiFu+HmiWwVrO0KNIsrUtVy1EhzXqMpFmPhbWTFGt7UbF2KFetp5Ro1o7fqrZOryfsXR9Sbd1/L1PXo43qG6VcA6rRCL9oH9VLcT5yu+p49J+i49Gvo67HiqOux8uirrGRqGucHHVNlKKuSbApYsT9ZDDqfrok6p5WFHE9u0JxPz9T9bw0OuT65/WC5/luwfxX9gqQTrNtQc/sYyT3e2eJrnevlz0fjZa9/50e8Xz8ueCdsyHsnVsc9s4vE3wLImHfAlnwfSYJvs9hi6Wwd0lU8H1VEfZ9XSx4ll1iVLlXLaJF9gpfYeewf+NfooHiyYK3aHHIt6m4wl9UGvKXRcL+MinsL5dC/qAY8oeCwfxQcUVA+CIciH4dzpd+EABmcwJaSOFWxRQZgzRWZihV2oxIqcbKSX4TgF5XSsIpG2nj4X9vZTaRDenuHTCNIynAQXpAb8NONVxyLpnoaHwZPFtNlpVxylMSFtePKYtHr7T49CpLPqwVrA22f6WnrW1h7WAnwDrATtIrrR1hnfSUrbMet3XdmbB1E+LW7h+K1h7DZGevXxun2adyBWgh3e6THCMGq46Rr2jOh9cprtFbY64xetw1Vk+4JmA5QY+5n4BNgk3WNfdTsGlYf06Pu6fDntfjnhd1wKnLnpd2iu6X0gnXa99G3bPGLaIx9pqz/KRyx79PVT3vvR7zfFQY9bxXKXk/2ql45+iad76u+T7NmOpbpCu+xYZ9CfsathS2XE/4v9GlwAo95P1qiFFlfVkirvV9BV/BP8RA8fKof1OVHCjRlUCFrgbCWIZ1OSDAIqhHzJgckHWlhZaxSAZK0bDmATREm48FmC/AdnDURFq7HWC+i0h5dZCSjc4MDhvxuFSF6IYYuqcM6WYY1ucB0k6GS07F9eKLIKSTVa8kh560uPQEAI0BUA2AapaWsKNgbXREUNhxsONh7XXV+mvYKbBT9ZjtNAZUT9u66VW2M/WE7cztMduZSzQ6+9LZNNhmnG6vygWgSt493SXH8JdVx4hYwjVKT7oe0VXXaF3GUnI9qouuv8Me10X3ONgE2BN6FJBG3VNhT8OmwZ7Ro57ndMnzPAMKUGfp27xv6RHPzBU6vbLHgP2g8/X+iuedZLV3nq54P9YBqC7Cot7/6oJvDmwu7BPYQsM+hy2GfQH7Upf9y/WIf1la8C/7vVFlrYL5a1qEvOvviXrXF0v+TboWKAOAxXoksEkXsAxnrARWBivXQ4C2xkIAUQCEEVi0WQEtoLKjS0l6LUxxtNGtgFOJlZH04Foq/eXfPwE41wCciu0/Qfq5RHS2UZwzcXRGxC7ZAkCR5gJMF8wDIGsATQDQJABNAdAUAE0hgqYQQZMANA5ANQNQFYCqti6wM2A99CQgrbadBVB7C6K9z/0SXeg1TrmHDhRQ1XHvoLhz+IqEc4SecD4IKB8AjA/CRsFGwx7Fvsd1xTUOEXMCbBJssq66n4Q9rSvuZ3UZtgvQqGc67AXYS3rS+5oueGZ8uTdAw67/9BM9/6do3g/1iPd92AcwXv9YjwBOEXBKiKIyomiNLYF9BfsatkxP+tegfEVJifez3fpjUdfqE6Legumif/1mLVCkR/0bAOF3MF6yFQHSEj0KMEUAKSGSioFoxqKwCIAUAGdzAlpMYhtEyplhiukyVeoVpFYA1r+MoTFWw+WXL6Sfl6MfuokhZcP6ylxDyoCi31u8D0B/SFhabUEUTSGCauiDyoig8bi1fWXM2mFHGilulfU0gNh5N0BVW09YL73K3ldP2PtUadbetxqn3EMHAqhsu/0C1XF3SbVzpK4679clmOgaWQuoAjgTSHFjgBOAfi+7xqdF13gNfVAl4vpHPOKamhRd06oB6fcNAzpzSUOASp535L0DOm+n6Jv/fcS3sFrwfpIMexdq3AcN+xYpgndxXPAtSWr+Vdtk36pPiml5wKiSYq2WB0TvupkKoGQL+wtg62sB5Qiq5iPFzQ9hvfyHiD9YhX5oHNFTrghUaGF/OB0NiNujADKa6Xs2D6BIZe8TKPFjDGktQA0D2KuMoiNLAGgAwFyxDYBuhSHarUQ0vdAoPmA1BGjK4gegATlOLR+LU+BWjVpfF6djBmvU9nKVjh2i0gk3Is0dGbecMiNpPXVFzNZpWyVSXK0eoIr9bEB6LlLgvmWa7ZzzjdPupqYCKuXd1EV03Lm8ElDKzmGA877dAI1l0ttHdqiux1ZKrr+/gCg6POIc+xfJPXFw2DHxCsk1+eqoa8q1Uee0myTns49HnM9qSgbOAwNU8c1D9Jy3TPTOuy/qWXBT2Dv/WtH36VUh9+eXBd2fXRnxfj6kwrvkT2Hfktsj/pXoAszOdAF00m0R37ePSIH1O2Q/gPSv3Q1QKRM1S7As3RDxl/8n5Ct5OOwruykcKP3foK/0ipAvNDjkD90Q8gv3IsV9IuSPruQbROEMqLkDtIQifUKklXNaGyK1EoDebBQdmQKQZ8FWMqBGJC0CWJcbxQekhgDdDEBjFv+3q6ntPgdNKNTGF6OTO2vWjiM1a+fSSgAaqweoau+jV9vP0zX7uXNidFZttNilpgBaSIMdkuNvL6UBpuK8F2Cy1QAqIcWNM5zOUQLS20fkvJGnR2nMfj7HP46JOp8p4ptEBwpoEv1NyffJ04Zbo1XhXD5A8K6Oa5zGZuD8CVAFfU7BvxH91aLnBX9x74L8gpbGYQ0qCFD5EUskh49ZFlHQVU7S63ynltPbMlKeX0pht1F85Aog9YJ9xZDyzSNE0nKF6IDTiv0BupaObrDvWFf8uEaiLv3j1q7LqwGnBlMMQBUAmkAUVey/3Spb+w01DqlVUwCV7bf0UR23y6kMmHfXART9UNfDgPahCsHx0FX7u0G1SzGaehwALc4VoEqWgBbSbJ/gW/1GHJFSQN+0LqAy0tpIYKOCFPfOKEUbPcqsOQYqlJE8EH3NJA88KCNpY5C0Zrl5eVgKfdIzAOaCaiOSptBGVKIbxxA1uWO+P0A3Uuusnl8p9u5949YewWqGsw6gqv0cpLrnY/38t9fWu2HUFEDVvNsmpQGm4rxrN0Djzgd1xfGAEHU8cIXh2ihFaMrxuQV0wTS4NHqwQ8S1ok/Ut1pRMxHz21pAo0h1xcCGbYJ/wzCkwFn9n3M91I/Pj+g5XaJKHg2kV5A82igytUsC0SlIcd+pxN+LBzRgPQZIb0IEa1SkqK9cA8rSrN1Gpm09d8Rtv6kFVAGglQA0bhsQVGlAT8M1o2wBFdw3tVMdt62qdt4DKO+sBVR2DtdjzgdQx4jHDddG62ADKnhXDdP86/SI/5vdANWQ2oZ8hfPX0JqsnynmGtBiEtqh77k6RTt4IELpJhLOMIpM1VWE6HiAOZMHMhjproJ0d0SYKOu+QHMAGqZux8WsPQsr6wGaAqAJe//qsO283aJbtoCGbTderDpu3RrLwPkToAnnSETUEd9F6L6OhmujdTAB5bRV9K1+Kx4oBJSrawEV/YUAtgDRc/11NZ7ZKdeABkk6H/1OrYp+1AWKvTGbZpszAzYkQNoacM0AXD8ag+yrAe3jPK7XcGmUmgNQlmrp+QwDqtp71wIas/cDoAN2Stb+Iwy3jLIFVLTfeGvSeTtgvH03QKucD+mxvBHTm/Is7mACKrq+PjHiXbFRy6S3PwGqcd/TX1BYcdSGJg33zDWg6HPeIVDihyildKS6Dxi7TTWkNCBFevscImgGUqS9WwDbTUZxo9RsgFp7DEkAUK0OoKr9PH2L/UI9aRvIjbdW2QDK03KKeTc9zYDKdQBVnMN0zXn/Tskx/G7DNSsdTEBD7hW95Ez/c109QIsA6PolhZ2bNodtjgG1lJP6bJK+18MUry6myB+M/ab2pSBRC0D6BCBL8DulVUQreZ9RvF81F6CyrccF3AetC6gCQLcD0CrbwBfhUtt4swE0RtcGFPvNc9IAsy6g8Uz/c3il6Bixz4HnDemgprjeZRcixU3KmX5nDaACYJX9G7AseFlv4uicXALKb6sIFH+9mvTM62JFJDbp73xEivueAG22DkDRL42gP3qSUbRfNVsEtff8rWbrtQegWwFoyjZwRt3HH9kAGqWhR2mOW1ZUAkzR+bd6gI6IKa77zjVcs9LBBFTyrPgf0beqUs48XqkBFKkt90F3Rn2FDxpuWSuXgM6lYqdAyTeqaCf6n4k0v1pmFJnan9D3vBpp7iaOoAC0CFG00YOVmwtQxX7mOTxQoT6g2wBo2nbhy3X7idkBegsAvXV1fUATzvsZUC3iuq+v4ZqVDiagEffSPzQEaMT/3W799WyU2wiq54mURgStAbTUjKCNk0w0FIBJ3Afl4YAA9El+I8Yo3q+aL4L26hfbC6Cc4qZtA18w3DLKNoIqjltXMaDSboAO5z5oLHoYRtBQA4BKmeF+BeMNt6yVS0DHkG4NkvZyJf2ghyhWZQK6H/G7o2miGwCXzI9aEDX5Je//ixEdZ7g0Ss3YB700vgeg/fQt9oF6wnbBU4ZbRtn2QeW8m+dxH1Sq1wfVnMNTUef9FxmuWelg90El3+pE/T6o6ucRROvf4zG6hmtWyvFNIiql8Ej0P3dGKPFDkMS/GbtN1RcipEMluhfRMvUDNgEYD1iYiX1Z345vthTX2v2hVL3HLHH7+XrMPuDHqLX/XYZbRtkAyn1X0XbzU/Xv4qrOYbDhP0Sdw5o0cPtgAiraV/QSfd8oamDPu7hRf+FKpU2hz3DNSrkGtJxCF4UplkxnnoPGZ+0a5G+qjlYTeRAlRwGqSoYTUXMHIJsWbeL8Rc0BaJBOdGnWHgurAGj9gQpJe/+0aBuw2wvK2QDKkvNuuSUBOOs+B5WN56Ba3sgn4dIoMOrqYAK60bmovehducdz0Jo3WtZrFd5vLjBcs1KuAS2m0ElBUr9L16S5a3jbKDLF2kjkTxBNBZSZGQARQXkGwPEKUZO+YVnNASjPS5Sw9Uwm6wFaae+vx239N4g0oLPhmlG2gIq2Gy9RHLdt1zJw1gDKAxVSmXG4968S3CN382+MDiagq2m1B33QN+P+3UcSRTjNrXkW+iLPS2S4N1q5BpQftQRJeo3nHQqR9mMFKXcaRaaKiQIMJ6DcyZETyy0cSbH/gGajzzWgGp3qT1i7v7+V+5+wXYDyYHkeiyvbzp+p05l5hntG2QIq0Z/bq47b1lbVG4vLL2yrzhE7ZPvIBl8Ob0gCTWt3sABlyd5v7+EUt/5YXMm/Efu+U4L+gqxvyuQaUFY5qUPKSd6mUJVeSuKKDVTRrJPaHRbiOXLRx5yOyPkj3xDCMgVYR6EvultDb4r2B2ghtWl0dA5Stxaq5fSJSVv3HQnbmXu8bqbaf1slU7893mPNFlB+cI8091kGVK4DKL/NkuQo6nxgXcg+qpfh3iiV0dNHA9CcvQ+aLaCCe3lvwbdKUfnl7DqA8utm/C5oJLDxCzGwMavPVO4Tbs01oDwRGACdy++DVpC6A5COaepNrF+EACYPjP83v2Jm3BBSkdLevogo65Rnb9oPoN8sQn/ScG1Q/LqbnNfxDM3WZWbMdsb2ZAMvbKvWc9/Z29xE2QLKEmw399ccd8aSGTB/AlTJvA86ShedDy2Luh46x3DfpxR6zhfJm3KD6HomrnqePyiAhmmpW/Cuejnh34CIufv7oAJSX54wTPBv+jbs/+6voq+4jXHYPlXhC98o5hhQVgmJF1eQFuMZFQCpAmAvNYqOLAHEkwFn5tUyI62NACh+s6HR//j9qSFAK2sADWrU4lqFWvaV6OgOFXRCW4VOPCYIi1G741Q6sYdmO+lyzdJpnGbttDZh66onbd0AZvcMoLsiaGXmDu45ZQnqc55x2t3UFEDDdJVbcdz+70rnMERRTnV3vbB9f2bSsLhrtB51jlofc4+5W8gbc0apd8yvIv4JrYtbjQmk8ie2zGw7JnQU3VP/KLqfmiW6pikSTxyWgzmJmgIoq9S9olfU921RDGltXUB5RgVEUETSMsC7KSUEit8PBzbdHvGWXrDJV9BpY+uNxwY9wWMKYRs8FW2D+cH2FfkVPUP+yDORfAVQKjkFlPui6H9OlSi9s2ZyanklImlW0f2wF9LaLgDyM57Rz0hrSwFTTqY5qauGAOVJw2KW/B/jlhZpzdI6mLIc9WXK0nZuynLsf1OW42HtP41Z2heq1lOSMWunnWlbZz22l0nD0va+gLPvZtXat8HHH00BlBXNu7mn7LxjA89JVBdQnpNIcj0ESB/VFdcj2yTnYwWqc+yHsnPs2xHX2JdF94T/qK7JH6iuKcsAaFIFmJr7n/rBBpQV8a0ZLPkKYjF/0W6A7po0jOclkgNBXQyUbo34y6IRf3Cl5BfmR32R/2bML80T8+Ul4fxoUTgQrWyuScPWkdAO0fNdmdK6mHm7Rf06SHIfo/iXLZ45AZFzMc+aYKS1xYimFxvFOdV+ANXTlpaZias3W36lb7a2hbWDnQDroFdZT9JT1o56fC/TbsYAKE+7GbOfvVmy9X68/iwKddVUQFmC9c4/qc57Y2mktvzCdv1Z/VRjVr8kT1oNU9w8efUkPemeqifcT2cmrpZhqvs5AMpwHlxA+W5t1LNulOhbn4770ffM9El/ApSN58UVA+UANaxrAVGPBSRdDcgwBabpKiBU8jWkts03qx+rhKQu5SR9JVNVZupNRNJvsW9IIem/3PdEAWYfALOUh+0Z05oUwJoFTta+AN3bxNUx63GwPSeuVgAo+qB6HCluGnCmbWcC3F4lqr3XPWHqvc8XyRsCNNkIQHnGdynv7r9ojvtK084HamZUQIobrTcvruT6O2wsYBwPECfWTlytuJ/S44ieEde0AtH17GdyBs6fAE1kCahwgICyJPrEK/jW3Br1rV8jId1VM7P58YTVSH0zkCK6AtK6E1eHA6Fa44mraywCYzijMInB1KX8ZGZZ4hevN053QEJqe2Y5KQv5HVFOdxFV5TKSJxVTpIfehN+3OaSFtHZADNkDP+NkOBNEyxE5mzT4u7HaF6BxAFplTFwdA6CxOoDGAKgGQGMANGXthGjZBVbTB41Zu0Xjlh4zFPsZjRoXC4Bbpe2Xf6rn/a+eBpyVeUP0Ssc1+veOG3TVce26iGvI8YZrg4ra7rpIzrtvjuIYsSXlejgzs7xWM+0mbAzs8QygknscoHwC0XOqnkLkBKA7oq6nPy9zPfnbhHv63du9/0LUnAGbBXtV3+57G+DNWhGmqXt8yVQ43xigeN5LbfZ+ose9c2HzAPQnOOZLPeZdMB0uB9RASzyreoZ8Bc8JvsIy9EF/UAGilh/MzIsrAkwhUAorhwXrABoGgDyrfEQX0fdU8hPwT+lKi6QuA04Z6wBUKffJlxmnOWCVU+TUMpL+BTi3xmkbz7aAaKqsKyPlsQqKnhOi0H5nIDzkhch5Cb+RwmAag94/BZzdjOJmU0OAxjI3iQKbK6llUZxab65GiluNFLcKKW4VUtwqpLjVSHHjADRh7SRXWzsXxq1dFiQsXSfJdPrAQurc6Mczq+nM/Crblc9/bx9cmLL/cW3aPmRt2jF07WbHdYUJx3VvBj2DjzFc96kKuretaL//b4ii7yddo79TXA8nE67HACunuONhE5HaTkIUnfgDAC2PuZ9cJLqmjq5wPtOBj4+7Xhiy1fNKQdwzY13cO2tt3Pvq2mrP69+p3tdeLaZpezxvDtvf+k3c88HitGfu+rh3Dvznro155q+r9i0qTPk+49fEDjiCLKWl7qB7de+Ib8OjEX/R+0qgdJ0aCJZF/aXbVERJDdFRhSmIkApSWAVQcoqLfqgeCchJOT9epAZSBZGAujySL78mBGKTwgF16AZ/pLVxipyoABAicg7jEUaC8VMQIVJ55oUQ+qZvV5AysoTE6zaScH6QIt2LKJbVmPGDJp3IDhivriIq48i5BYYoOlclynpenaaoIUCragAt1Ch/gEatb6ukNlMqLW1hx02utBwP6zC52nLyFIVOelykU69K0am9ItTl+KbMMMgD/7fSoF8n867omci7olsi7+qMRfOu7qk6ruuo0y1ZPe8V6a42mn1EL8k56gbV/ejkmHvslJh7PJbjJyfcT0yRXZNGRZz/GCg5n2qPP3ctRJX04lHVnle6K56Z3XaZ6pnVUwm8dvLe0jVORePeD7tEPB/0UDwfw39+xlTPRz1j7k9z3gCLqbiN4FnfTfCWDgh5N90XDZRPVQPRyXJAmCwFpFpTWqhTAOiEcL70V6Vl/JxofrJn0BftpLXWmvSzio2XbgGkZwDGcYim64Kk7IzRZl2D8SyAiKqbwxSrECldiIj7mHHQoa0wUas00UJ+2ZojJ6Lo+yLRiUZxs6shQI3noKsRCTMdflyfrQFrxn/4gYsH19fY7Izt7VfKDlfxAIG922xeNmkWhlyIr4F//5N/6h5p7vuwoECJSp7omgc48EvfKPsPPA/ptpMRDzhAejuokmgN4HwP0bRRP9mXK+0H0Ca/zWLKFGsDbWhdQlL/IGnXlJM4upQiz5aSPBOA3gCQD31Adwmg9AKgJxibP5tMQE39XGIggxR08TSjSNcPaAz5ESMTUFOmDmGZgJoydQjrlw5oGVE+PqP5JWPq8NQvHVB8vltjRDkZNWPK1M+uXYBuBaBxABoHoCkAuhOAahb/hsMd0DTR81VES/lxlrHLlKnDR4gup6WIBB2AbgWgmwFo3OLZvs3iD8coMEdq5O+DHqiWErn5uaqxecDi1JZn2OfoCUC34UuoUQ/GVxPlSUTtZaJf49g9fmy4KeLPdaAzX+xLXD9PXo7lQXv2aaqZxDMBJoimJMnyrxjlTYU9ESfPTUny9JTI2eFAfnu0seJhjoh0EwHV0cauAxbqvBifbRhPpgY451USpfhFBKN4r0J5X/i9gr9HEeAsxXFzkWH8wShukhhM1DEc19JsPxOPL6Br8Pcbh+vN+icKTR3iYgD525cjh7HrZxfDuZWoMISolauZIgDZdai3BKCdBbsQ69uw752GojQad3tkEt9iGYLfCzjmBWy/A2ivNlxqVUhINfZSD0ewufUiJafWgHMF6nvZ2LWbeJgjjtvr61nYb9/X/wXllleIXJuJZgDStQrRbmOWUb7XY/lvbHwGM+Ka2r8Az2NoYBoizasAYgYAGYPG1p3nYgIkd8J+Z7hmGhei3JVo8DeifI/0G3X0MqA8rboGtvkMCbanAr4Elvcgqu4xIATnvxD1bgdME3mbGy+uwccN2di24Xz9cfwkXCOyDZqO67oF1oq/4LB9Pep/BmX/xr6pWA7iY3myN1zTEpSvxvJ29uPUWyRqg/pvwPZLRn2Tca39+Fw4/kzYg9j3MspewfJh+NfOhIjrPAq+f0LZc1yOz7kJ/ku5zsz0M0QXYP9TON+/sBzOKTsfh3rawe6B78uwGfi7HxkvWJs6MKGxPILGshUNahka3hw0oiAa+3eAZSj2z8e+VfDJvLLE45TR6IpQ/iZgrX1HE/uOh/8E+PK0MF8yBPAZzzNSoI7rcDz3KSvhtwMN/GuU3Vg3fYfPKbAS7N+AOi4FXLVv43CkQt03oTyK4wtQz1z4lKPONPafh/UTcM4klhtw/MdYrkeZCt9bcB0u+H+K9QTsC9gM+P4Gfq/Bj30WwT6HbUH9szliYvkyrpFnbfwSPp/weeG/DNaevwywj38XNobyJXwszhWDfcGfGWWXwb8Cy69Q9gH8RKy/y31yrF+Jeitx/vVY/wjHX2h8RFOmGhai19gtABKN7zdoNBxxBnDDQkN7C43rLpQnsJ35VW6sD+VtRJ8/Zg6GdhK1RsN7A/t3vaq3A/XcVYH+NfavYcP2QDTYKAOLdJp/KiMNu3dXhGThXH/AvmU4rwpbDP+buZy/FFBHMY5dCCA7ckSG76Ow7YhWA3G+k3HNaWz/maMulv1wvWEGxIigi3H+N1F2DHxbYfsW+OyAzwiOevyL6dj/Kc49h/usONfbiIrrEPm6GmD9FX8fhnAIjr0Ufklc33j4tdlIdCyu6zXsW1qC68Bx78G+QpbQCT6tcd7RKNewfRF8BuOzC6jjcnQnWuKLZ4+X0E2Z2kNoOOPQANehcdbOnICGNR8NqwyN/HQ0tK/QoN9BI/Ogsb7J22hktY9/0HAvgm81TMdxOi/hV8qNFMddhvJK7P8Sx6SxP+PDkKJM4H6vUU1GnA7C/1bYUlxXFfzvA0T9GCgcN8xw45tr9+DatqDOCwDeySiLwyczux2Obcnng81nSODzBfz5N1Ezgt8klO3k6+Nt7rfiPB/hfB8zoDjmLUC2nH9Fnctx/Kn44uGofCeOy/wWLOqofeMJf7vMoySB6GwcuwLlxbi2WfCZhfWFqIsj/VAAfRV8y3G9TfqBKVNHqAxA1yIy7XqH0oKGtQQNshiNLB92FxpXBRrqSDS2jWh89xt+GaH8POxPMnRowPw7NTq2GcApqKcF6p/Pczvh+NpynogN6yVo1HudToUfs+Cc/IbRKqxfgWvZjLruM4r5C+Su+oCi/Eouw3FHYT/3O/nu8VFY8nrtTSL4TcD2ToCf6VdyWov6P6gD6JtYX8kRl8vh2xnXW4BruQP1jkWdSSxP5TIWPut0+C8D0D2wvgT18wRzj+G4MbjGv2N5L9Jf/uK5Bn/nIMrONw41ZWr/QuOaiIbDfcfzAVl7bljYx88ueV6fTFTDeiHKtqIBrkND2+03QdYSedF4J/MxPCMFw8mwonHGEDmGoEG/hXQu8wtwOE8GTiwFHHMt9y+5Dk5jAcYNiL6/wfFtcQ3cXwvjXF/gi6Mr1jkyrUOdfXHcCVh/Ff4M+UCc4xTs3wzfwVwXzvMr7FuJfZ/jM/l5Cd8C1Nsd/seh7EYc/z3sGVgH7OsNnzKcYz4Dinre5c8Jv8ys7Sjris9Viv138I0q1M8Tl7+J8o6wnjhuJWwVp7tYPsvlqPdm+JwI64b1KzilxTVcj7+LhGsawPWaMtUooUHdgwYowBYAno+xzTdr/s0NzHDhqPM4+pp8w+eFvT2bRcMOoCHzXdXFaNwR1FHJMKIx8k2SGAOLfQk04DLU9QZ8d/sBJwYNPmtwDV/D5mG9AL7fwDfT10X5H3FMMVLNpaj/Xez/EtdSBrDPg297lJXgXJlnpkhdOWrOwfZ7fK1Y3oFjKhDFF+P6pqFf2RH+0/BlUIpzzcG+D3GNm1D3DE53cZ0vYX3erufCOMdp2F6C67mRH8vg3BO5PuzjG2jvYv9ybH+0BtkCAO6C6+LrX4+/5Qewhdh+D4AyvFfgmFVmimsqK3Fqi8ZzHhrmQBg/7jiX70gaxZnnjmiIY2ApjiDG7r0KMByLBtkHAAyFPYntV9AgZ2J9LI6/FI27O/btMXwRkLTEec9BQ/8frA9BHb/nCGUUsyyo43SU882W/ljvCr+z+Di+2YI0uA+DyY6csuKc3dift420tTeguQjgnmXsCxjn+x2Xoc7TAU8nBhr7O2F/9103sLjvDZB7AuhjeRt/Lzfq7svXwteA405BeTdcR+a5J0de1NGP/5Z8TlxLd5RxvW04Q8DfIZ/9TJk6YKHhX4hG/T7AErB8kR9bGEX71a4H8my7UllTpkzlUIh2HK34ud+9u/pkpkyZOkSEyJcZCG5smjJlypQpU6ZMmTJlypQpU6ZMmTJlypQpU6ZMmTJlypQpU6ZMmTJlypQpU6ZMmTJlypQpU6ZM/VJF9P/4VLlQmJjGNAAAAABJRU5ErkJggg==&quot; style=&quot;font-size: 10px;&quot;&gt;" style="text;html=1;strokeColor=none;fillColor=none;align=center;verticalAlign=middle;whiteSpace=wrap;rounded=0;fontSize=10;" parent="1" vertex="1">
          <mxGeometry x="132" y="239" width="10" height="10" as="geometry" />
        </mxCell>
        <mxCell id="Bnk67_aWibF8yN_9XxKm-9" value="&lt;div style=&quot;text-align: center;&quot;&gt;&lt;span style=&quot;background-color: transparent; color: light-dark(rgb(0, 0, 0), rgb(237, 237, 237)); font-size: 16px; text-align: left;&quot;&gt;PLARD Lynx -&amp;nbsp;&lt;/span&gt;&lt;span style=&quot;background-color: transparent; color: light-dark(rgb(0, 0, 0), rgb(237, 237, 237)); font-size: 16px;&quot;&gt;LMPJ -&amp;nbsp;&lt;/span&gt;&lt;span style=&quot;background-color: transparent; font-size: 16px;&quot;&gt;Consulta de Movimientos por Numero de Autorización&lt;/span&gt;&lt;/div&gt;" style="shape=umlFrame;whiteSpace=wrap;html=1;pointerEvents=0;recursiveResize=0;container=1;collapsible=0;width=600;height=28;fontStyle=1;fontSize=13;strokeColor=#000000;strokeWidth=2;fontColor=#000000;" parent="1" vertex="1">
          <mxGeometry x="22" y="282" width="2720" height="3198" as="geometry" />
        </mxCell>
        <mxCell id="UOhI1Jb9BPqGJdpc2Sex-65" value="&lt;div style=&quot;&quot;&gt;&lt;b style=&quot;font-size: 12px;&quot;&gt;Funcionalidad:&lt;/b&gt;&lt;span style=&quot;font-size: 12px;&quot;&gt;&lt;span style=&quot;&quot;&gt;&amp;nbsp;Transacción LMPJ Consulta de movimientos por número de autorización o por ID Autorizador Stratos&lt;/span&gt;&lt;/span&gt;&lt;/div&gt;&lt;div style=&quot;&quot;&gt;&lt;span style=&quot;font-size: 12px;&quot;&gt;&lt;span style=&quot;&quot;&gt;&lt;br&gt;&lt;/span&gt;&lt;/span&gt;&lt;/div&gt;&lt;div style=&quot;&quot;&gt;&lt;b style=&quot;font-size: 12px;&quot;&gt;Alcance&lt;/b&gt;: MPV-Full Debit&amp;nbsp;&amp;nbsp;- Esta transacción apoya a validar los datos de una operación, cuando existe un reporte por fraude&lt;/div&gt;&lt;div style=&quot;font-size: 12px;&quot;&gt;&lt;br&gt;&lt;/div&gt;&lt;div style=&quot;font-size: 12px;&quot;&gt;&lt;div&gt;&lt;b&gt;Reglas de Negocio:&lt;/b&gt;&amp;nbsp;&lt;/div&gt;&lt;div&gt;&lt;ul&gt;&lt;li&gt;No identificadas&lt;/li&gt;&lt;/ul&gt;&lt;div&gt;&lt;b style=&quot;background-color: initial;&quot;&gt;Precondiciones:&lt;/b&gt;&lt;br&gt;&lt;/div&gt;&lt;/div&gt;&lt;/div&gt;&lt;div style=&quot;&quot;&gt;&lt;ul&gt;&lt;li&gt;Tener una Tarjeta de débito&lt;/li&gt;&lt;li&gt;Que exista un operación efectuada&lt;/li&gt;&lt;li&gt;El Analista tiene acceso al front de la aplicación Lynx&lt;/li&gt;&lt;/ul&gt;&lt;/div&gt;&lt;div style=&quot;&quot;&gt;&lt;br&gt;&lt;/div&gt;&lt;div style=&quot;&quot;&gt;&lt;b style=&quot;background-color: initial;&quot;&gt;Post-Condiciones:&amp;nbsp;&lt;/b&gt;&lt;br&gt;&lt;/div&gt;&lt;div style=&quot;&quot;&gt;&lt;ul&gt;&lt;li&gt;El analista valida datos de la operación que esta reportada con una alerta de fraude&lt;/li&gt;&lt;li&gt;El analista valida los numeros de aprobación o identificador SIA, número de referencia, tipo de operacion y factura.&lt;/li&gt;&lt;/ul&gt;&lt;/div&gt;" style="text;html=1;align=left;verticalAlign=top;whiteSpace=wrap;rounded=0;fontSize=12;strokeColor=default;" parent="1" vertex="1">
          <mxGeometry x="16" y="3756" width="510" height="340" as="geometry" />
        </mxCell>
        <mxCell id="UOhI1Jb9BPqGJdpc2Sex-66" value="Funcionalidad" style="rounded=0;whiteSpace=wrap;html=1;fontSize=14;fontStyle=1;fillColor=#bac8d3;strokeColor=#23445d;" parent="1" vertex="1">
          <mxGeometry x="16" y="3715" width="510" height="40" as="geometry" />
        </mxCell>
        <mxCell id="UOhI1Jb9BPqGJdpc2Sex-68" value="Escenarios" style="rounded=0;whiteSpace=wrap;html=1;fontSize=15;fontStyle=1;align=center;fillColor=#bac8d3;strokeColor=#23445d;" parent="1" vertex="1">
          <mxGeometry x="13" y="4113" width="513" height="42" as="geometry" />
        </mxCell>
        <mxCell id="UOhI1Jb9BPqGJdpc2Sex-69" value="&lt;div style=&quot;&quot;&gt;&lt;b style=&quot;font-size: 13px;&quot;&gt;Escenario 1: &lt;/b&gt;&lt;font size=&quot;1&quot; style=&quot;&quot;&gt;&lt;b style=&quot;font-size: 13px;&quot;&gt;Consulta datos de una operación con el apoyo de la Trx LMPJ&lt;/b&gt;&lt;/font&gt;&lt;/div&gt;&lt;div style=&quot;font-size: 13px;&quot;&gt;&lt;br&gt;&lt;/div&gt;&lt;div style=&quot;&quot;&gt;El analista de evauación de riesgos desde el front de la aplicación de Lynx manda llamar varias transacciones entre una de ellas la LMPJ para validar los datos de cada operación reportada con alerta de fraude&lt;/div&gt;" style="text;html=1;strokeColor=default;fillColor=none;align=left;verticalAlign=top;whiteSpace=wrap;rounded=0;fontSize=12;strokeWidth=1;" parent="1" vertex="1">
          <mxGeometry x="13" y="4156" width="513" height="164" as="geometry" />
        </mxCell>
        <mxCell id="bNmyXN-axlHxdMonLR5W-23" value="&lt;div style=&quot;font-size: medium; text-align: start;&quot; data-ccp-timestamp=&quot;1744617598917&quot;&gt;&lt;table style=&quot;border-collapse: collapse; width: 632pt;&quot; width=&quot;843&quot;&gt;&lt;colgroup&gt;&lt;col style=&quot;width: 20pt;&quot; width=&quot;27&quot;&gt;&lt;col style=&quot;width: 48pt;&quot; width=&quot;64&quot;&gt;&lt;col style=&quot;width: 103pt;&quot; width=&quot;137&quot;&gt;&lt;col style=&quot;width: 41pt;&quot; width=&quot;54&quot;&gt;&lt;col style=&quot;width: 152pt;&quot; width=&quot;202&quot;&gt;&lt;col style=&quot;width: 48pt;&quot; width=&quot;64&quot;&gt;&lt;col style=&quot;width: 221pt;&quot; width=&quot;295&quot;&gt;&lt;/colgroup&gt;&lt;tbody&gt;&lt;tr style=&quot;height: 15pt;&quot; height=&quot;20&quot;&gt;&lt;td style=&quot;padding-top: 1px; padding-right: 1px; padding-left: 1px; color: rgb(0, 32, 96); font-size: 9pt; font-weight: 700; font-family: Calibri, sans-serif; vertical-align: middle; border: 0.5pt solid rgb(191, 191, 191); text-wrap: nowrap; background: white; width: 20pt; height: 15pt;&quot; class=&quot;xl138&quot; height=&quot;20&quot; width=&quot;27&quot;&gt;#&lt;/td&gt;&lt;td style=&quot;padding-top: 1px; padding-right: 1px; padding-left: 1px; color: rgb(0, 32, 96); font-size: 9pt; font-weight: 700; font-family: Calibri, sans-serif; vertical-align: middle; border: 0.5pt solid rgb(191, 191, 191); text-wrap: nowrap; background: white; width: 48pt;&quot; class=&quot;xl138&quot; width=&quot;64&quot;&gt;Campo&lt;/td&gt;&lt;td style=&quot;padding-top: 1px; padding-right: 1px; padding-left: 1px; color: rgb(0, 32, 96); font-size: 9pt; font-weight: 700; font-family: Calibri, sans-serif; vertical-align: middle; border: 0.5pt solid rgb(191, 191, 191); text-wrap: nowrap; background: white; width: 103pt;&quot; class=&quot;xl138&quot; width=&quot;137&quot;&gt;Descripcion de Campo&lt;/td&gt;&lt;td style=&quot;padding-top: 1px; padding-right: 1px; padding-left: 1px; color: rgb(0, 32, 96); font-size: 9pt; font-weight: 700; font-family: Calibri, sans-serif; vertical-align: middle; border: 0.5pt solid rgb(191, 191, 191); text-wrap: nowrap; background: white; width: 41pt;&quot; class=&quot;xl138&quot; width=&quot;54&quot;&gt;Longitud&lt;/td&gt;&lt;td style=&quot;padding-top: 1px; padding-right: 1px; padding-left: 1px; color: rgb(0, 32, 96); font-size: 9pt; font-weight: 700; font-family: Calibri, sans-serif; vertical-align: middle; border: 0.5pt solid rgb(191, 191, 191); text-wrap: nowrap; background: white; width: 152pt;&quot; class=&quot;xl138&quot; width=&quot;202&quot;&gt;Tipo&lt;/td&gt;&lt;td style=&quot;padding-top: 1px; padding-right: 1px; padding-left: 1px; color: rgb(0, 32, 96); font-size: 9pt; font-weight: 700; font-family: Calibri, sans-serif; vertical-align: middle; border: 0.5pt solid rgb(191, 191, 191); text-wrap: nowrap; background: white; width: 48pt;&quot; class=&quot;xl138&quot; width=&quot;64&quot;&gt;Req./Opc.&lt;/td&gt;&lt;td style=&quot;padding-top: 1px; padding-right: 1px; padding-left: 1px; font-size: 9pt; font-weight: 700; font-family: Calibri, sans-serif; vertical-align: middle; border-top: 0.5pt solid rgb(191, 191, 191); border-right: 0.5pt solid rgb(191, 191, 191); border-bottom: none; border-left: 0.5pt solid rgb(191, 191, 191); border-image: initial; text-wrap: nowrap; background: white; width: 221pt;&quot; class=&quot;xl160&quot; width=&quot;295&quot;&gt;Notas, complemento&lt;/td&gt;&lt;/tr&gt;&lt;tr style=&quot;height: 15pt;&quot; height=&quot;20&quot;&gt;&lt;td style=&quot;padding-top: 1px; padding-right: 1px; padding-left: 1px; color: rgb(0, 32, 96); font-size: 9pt; font-family: Calibri, sans-serif; vertical-align: middle; border: 0.5pt solid rgb(191, 191, 191); text-wrap: nowrap; background: white; height: 15pt;&quot; class=&quot;xl141&quot; height=&quot;20&quot;&gt;01&lt;/td&gt;&lt;td style=&quot;padding-top: 1px; padding-right: 1px; padding-left: 1px; color: rgb(0, 32, 96); font-size: 9pt; font-family: Calibri, sans-serif; vertical-align: middle; border: 0.5pt solid rgb(191, 191, 191); text-wrap: nowrap; background: white;&quot; class=&quot;xl141&quot;&gt;PAN&amp;nbsp;&amp;nbsp;&amp;nbsp;&amp;nbsp;&lt;/td&gt;&lt;td style=&quot;padding-top: 1px; padding-right: 1px; padding-left: 1px; color: rgb(0, 32, 96); font-size: 9pt; font-family: Calibri, sans-serif; vertical-align: middle; border: 0.5pt solid rgb(191, 191, 191); text-wrap: nowrap; background: white;&quot; class=&quot;xl141&quot;&gt;NUMERO DE TARJETA&amp;nbsp;&amp;nbsp;&lt;/td&gt;&lt;td style=&quot;padding-top: 1px; padding-right: 1px; padding-left: 1px; color: rgb(0, 32, 96); font-size: 9pt; font-family: Calibri, sans-serif; vertical-align: middle; border: 0.5pt solid rgb(191, 191, 191); text-wrap: nowrap; text-align: center; background: white;&quot; class=&quot;xl143&quot;&gt;22&lt;/td&gt;&lt;td style=&quot;padding-top: 1px; padding-right: 1px; padding-left: 1px; color: rgb(0, 32, 96); font-size: 9pt; font-family: Calibri, sans-serif; vertical-align: middle; border: 0.5pt solid rgb(191, 191, 191); text-wrap: nowrap; background: white;&quot; class=&quot;xl141&quot;&gt;Alfanumerico&lt;/td&gt;&lt;td style=&quot;padding-top: 1px; padding-right: 1px; padding-left: 1px; color: rgb(0, 32, 96); font-size: 9pt; font-family: Calibri, sans-serif; vertical-align: middle; border-top: 0.5pt solid rgb(191, 191, 191); border-right: none; border-bottom: 0.5pt solid rgb(191, 191, 191); border-left: 0.5pt solid rgb(191, 191, 191); border-image: initial; text-wrap: nowrap; background: white;&quot; class=&quot;xl144&quot;&gt;Requerido&lt;/td&gt;&lt;td style=&quot;padding-top: 1px; padding-right: 1px; padding-left: 1px; color: rgb(0, 112, 192); font-size: 9pt; font-family: Calibri, sans-serif; vertical-align: middle; border: 0.5pt solid rgb(232, 232, 232); text-wrap: nowrap; background: white;&quot; class=&quot;xl187&quot;&gt;Se valida que este informado.&lt;/td&gt;&lt;/tr&gt;&lt;tr style=&quot;height: 15pt;&quot; height=&quot;20&quot;&gt;&lt;td style=&quot;padding-top: 1px; padding-right: 1px; padding-left: 1px; color: rgb(0, 32, 96); font-size: 9pt; font-family: Calibri, sans-serif; vertical-align: middle; border: 0.5pt solid rgb(191, 191, 191); text-wrap: nowrap; background: white; height: 15pt;&quot; class=&quot;xl141&quot; height=&quot;20&quot;&gt;02&lt;/td&gt;&lt;td style=&quot;padding-top: 1px; padding-right: 1px; padding-left: 1px; color: rgb(0, 32, 96); font-size: 9pt; font-family: Calibri, sans-serif; vertical-align: middle; border: 0.5pt solid rgb(191, 191, 191); text-wrap: nowrap; background: white;&quot; class=&quot;xl141&quot;&gt;EMPRESA&lt;/td&gt;&lt;td style=&quot;padding-top: 1px; padding-right: 1px; padding-left: 1px; color: rgb(0, 32, 96); font-size: 9pt; font-family: Calibri, sans-serif; vertical-align: middle; border: 0.5pt solid rgb(191, 191, 191); text-wrap: nowrap; background: white;&quot; class=&quot;xl141&quot;&gt;CLAVE DE LA EMPRESA&lt;/td&gt;&lt;td style=&quot;padding-top: 1px; padding-right: 1px; padding-left: 1px; color: rgb(0, 32, 96); font-size: 9pt; font-family: Calibri, sans-serif; vertical-align: middle; border: 0.5pt solid rgb(191, 191, 191); text-wrap: nowrap; text-align: center; background: white;&quot; class=&quot;xl143&quot;&gt;4&lt;/td&gt;&lt;td style=&quot;padding-top: 1px; padding-right: 1px; padding-left: 1px; color: rgb(0, 32, 96); font-size: 9pt; font-family: Calibri, sans-serif; vertical-align: middle; border: 0.5pt solid rgb(191, 191, 191); text-wrap: nowrap; background: white;&quot; class=&quot;xl141&quot;&gt;Alfanumerico&lt;/td&gt;&lt;td style=&quot;padding-top: 1px; padding-right: 1px; padding-left: 1px; color: rgb(0, 32, 96); font-size: 9pt; font-family: Calibri, sans-serif; vertical-align: middle; border-top: 0.5pt solid rgb(191, 191, 191); border-right: none; border-bottom: 0.5pt solid rgb(191, 191, 191); border-left: 0.5pt solid rgb(191, 191, 191); border-image: initial; text-wrap: nowrap; background: white;&quot; class=&quot;xl144&quot;&gt;Opcional&lt;/td&gt;&lt;td style=&quot;padding-top: 1px; padding-right: 1px; padding-left: 1px; color: red; font-size: 9pt; font-family: Calibri, sans-serif; vertical-align: middle; border-top: none; border-right: none; border-bottom: 0.5pt solid rgb(217, 217, 217); border-left: 0.5pt solid rgb(232, 232, 232); border-image: initial; text-wrap: nowrap; background: white;&quot; class=&quot;xl193&quot;&gt;Sin uso en LMPJ&lt;/td&gt;&lt;/tr&gt;&lt;tr style=&quot;height: 15pt;&quot; height=&quot;20&quot;&gt;&lt;td style=&quot;padding-top: 1px; padding-right: 1px; padding-left: 1px; color: rgb(0, 32, 96); font-size: 9pt; font-family: Calibri, sans-serif; vertical-align: middle; border: 0.5pt solid rgb(191, 191, 191); text-wrap: nowrap; background: white; height: 15pt;&quot; class=&quot;xl141&quot; height=&quot;20&quot;&gt;03&lt;/td&gt;&lt;td style=&quot;padding-top: 1px; padding-right: 1px; padding-left: 1px; color: rgb(0, 32, 96); font-size: 9pt; font-family: Calibri, sans-serif; vertical-align: middle; border: 0.5pt solid rgb(191, 191, 191); text-wrap: nowrap; background: white;&quot; class=&quot;xl141&quot;&gt;CANOPER&lt;/td&gt;&lt;td style=&quot;padding-top: 1px; padding-right: 1px; padding-left: 1px; color: rgb(0, 32, 96); font-size: 9pt; font-family: Calibri, sans-serif; vertical-align: middle; border: 0.5pt solid rgb(191, 191, 191); text-wrap: nowrap; background: white;&quot; class=&quot;xl141&quot;&gt;CANAL OPERATIVO&amp;nbsp;&amp;nbsp;&amp;nbsp;&amp;nbsp;&lt;/td&gt;&lt;td style=&quot;padding-top: 1px; padding-right: 1px; padding-left: 1px; color: rgb(0, 32, 96); font-size: 9pt; font-family: Calibri, sans-serif; vertical-align: middle; border: 0.5pt solid rgb(191, 191, 191); text-wrap: nowrap; text-align: center; background: white;&quot; class=&quot;xl143&quot;&gt;2&lt;/td&gt;&lt;td style=&quot;padding-top: 1px; padding-right: 1px; padding-left: 1px; color: rgb(0, 32, 96); font-size: 9pt; font-family: Calibri, sans-serif; vertical-align: middle; border: 0.5pt solid rgb(191, 191, 191); text-wrap: nowrap; background: white;&quot; class=&quot;xl141&quot;&gt;Alfanumerico&lt;/td&gt;&lt;td style=&quot;padding-top: 1px; padding-right: 1px; padding-left: 1px; color: rgb(0, 32, 96); font-size: 9pt; font-family: Calibri, sans-serif; vertical-align: middle; border-top: 0.5pt solid rgb(191, 191, 191); border-right: none; border-bottom: 0.5pt solid rgb(191, 191, 191); border-left: 0.5pt solid rgb(191, 191, 191); border-image: initial; text-wrap: nowrap; background: white;&quot; class=&quot;xl144&quot;&gt;Opcional&lt;/td&gt;&lt;td style=&quot;padding-top: 1px; padding-right: 1px; padding-left: 1px; color: red; font-size: 9pt; font-family: Calibri, sans-serif; vertical-align: middle; border-top: 0.5pt solid rgb(217, 217, 217); border-right: none; border-bottom: 0.5pt solid rgb(217, 217, 217); border-left: 0.5pt solid rgb(232, 232, 232); border-image: initial; text-wrap: nowrap; background: white;&quot; class=&quot;xl190&quot;&gt;Sin uso en LMPJ&lt;/td&gt;&lt;/tr&gt;&lt;tr style=&quot;height: 15pt;&quot; height=&quot;20&quot;&gt;&lt;td style=&quot;padding-top: 1px; padding-right: 1px; padding-left: 1px; color: rgb(0, 32, 96); font-size: 9pt; font-family: Calibri, sans-serif; vertical-align: middle; border: 0.5pt solid rgb(191, 191, 191); text-wrap: nowrap; background: white; height: 15pt;&quot; class=&quot;xl141&quot; height=&quot;20&quot;&gt;04&lt;/td&gt;&lt;td style=&quot;padding-top: 1px; padding-right: 1px; padding-left: 1px; color: rgb(0, 32, 96); font-size: 9pt; font-family: Calibri, sans-serif; vertical-align: middle; border: 0.5pt solid rgb(191, 191, 191); text-wrap: nowrap; background: white;&quot; class=&quot;xl141&quot;&gt;CANCOME&lt;/td&gt;&lt;td style=&quot;padding-top: 1px; padding-right: 1px; padding-left: 1px; color: rgb(0, 32, 96); font-size: 9pt; font-family: Calibri, sans-serif; vertical-align: middle; border: 0.5pt solid rgb(191, 191, 191); text-wrap: nowrap; background: white;&quot; class=&quot;xl141&quot;&gt;CANAL COMERCIALIZ&amp;nbsp;&amp;nbsp;&lt;/td&gt;&lt;td style=&quot;padding-top: 1px; padding-right: 1px; padding-left: 1px; color: rgb(0, 32, 96); font-size: 9pt; font-family: Calibri, sans-serif; vertical-align: middle; border: 0.5pt solid rgb(191, 191, 191); text-wrap: nowrap; text-align: center; background: white;&quot; class=&quot;xl143&quot;&gt;2&lt;/td&gt;&lt;td style=&quot;padding-top: 1px; padding-right: 1px; padding-left: 1px; color: rgb(0, 32, 96); font-size: 9pt; font-family: Calibri, sans-serif; vertical-align: middle; border: 0.5pt solid rgb(191, 191, 191); text-wrap: nowrap; background: white;&quot; class=&quot;xl141&quot;&gt;Alfanumerico&lt;/td&gt;&lt;td style=&quot;padding-top: 1px; padding-right: 1px; padding-left: 1px; color: rgb(0, 32, 96); font-size: 9pt; font-family: Calibri, sans-serif; vertical-align: middle; border-top: 0.5pt solid rgb(191, 191, 191); border-right: none; border-bottom: 0.5pt solid rgb(191, 191, 191); border-left: 0.5pt solid rgb(191, 191, 191); border-image: initial; text-wrap: nowrap; background: white;&quot; class=&quot;xl144&quot;&gt;Opcional&lt;/td&gt;&lt;td style=&quot;padding-top: 1px; padding-right: 1px; padding-left: 1px; color: red; font-size: 9pt; font-family: Calibri, sans-serif; vertical-align: middle; border-width: 0.5pt; border-style: solid; border-color: rgb(217, 217, 217) black rgb(232, 232, 232) rgb(232, 232, 232); border-image: initial; text-wrap: nowrap; background: white;&quot; class=&quot;xl185&quot;&gt;Sin uso en LMPJ&lt;/td&gt;&lt;/tr&gt;&lt;/tbody&gt;&lt;/table&gt;&lt;/div&gt;" style="rounded=0;whiteSpace=wrap;html=1;" parent="1" vertex="1">
          <mxGeometry x="1636" y="3559.11" width="860" height="116" as="geometry" />
        </mxCell>
        <mxCell id="bNmyXN-axlHxdMonLR5W-24" value="&lt;div style=&quot;font-size: medium; text-align: start;&quot; data-ccp-timestamp=&quot;1745010216908&quot;&gt;&lt;table style=&quot;border-collapse: collapse; width: 563pt;&quot; width=&quot;750&quot;&gt;&lt;colgroup&gt;&lt;col style=&quot;width: 65pt;&quot; width=&quot;87&quot;&gt;&lt;col style=&quot;width: 74pt;&quot; width=&quot;98&quot;&gt;&lt;col style=&quot;width: 36pt;&quot; width=&quot;48&quot;&gt;&lt;col style=&quot;width: 45pt;&quot; width=&quot;60&quot;&gt;&lt;col style=&quot;width: 27pt;&quot; width=&quot;36&quot;&gt;&lt;col style=&quot;width: 36pt;&quot; width=&quot;48&quot;&gt;&lt;col style=&quot;width: 56pt;&quot; width=&quot;75&quot;&gt;&lt;col style=&quot;width: 48pt;&quot; width=&quot;64&quot;&gt;&lt;col style=&quot;width: 176pt;&quot; width=&quot;234&quot;&gt;&lt;/colgroup&gt;&lt;tbody&gt;&lt;tr style=&quot;height: 15pt;&quot; height=&quot;20&quot;&gt;&lt;td style=&quot;padding-top: 1px; padding-right: 1px; padding-left: 1px; font-size: 9pt; font-weight: 700; font-family: Calibri, sans-serif; vertical-align: middle; border-top: 0.5pt solid black; border-right: 0.5pt solid black; border-bottom: none; border-left: 0.5pt solid black; border-image: initial; text-wrap: nowrap; background: rgb(217, 225, 242); width: 65pt; height: 15pt;&quot; class=&quot;xl96&quot; height=&quot;20&quot; width=&quot;87&quot;&gt;API&lt;/td&gt;&lt;td style=&quot;padding-top: 1px; padding-right: 1px; padding-left: 1px; font-size: 9pt; font-weight: 700; font-family: Calibri, sans-serif; vertical-align: middle; border-top: 0.5pt solid black; border-right: 0.5pt solid black; border-bottom: none; border-left: 0.5pt solid black; border-image: initial; text-wrap: nowrap; background: rgb(217, 225, 242); width: 74pt;&quot; class=&quot;xl96&quot; width=&quot;98&quot;&gt;Endpoint&lt;/td&gt;&lt;td style=&quot;padding-top: 1px; padding-right: 1px; padding-left: 1px; font-size: 9pt; font-weight: 700; font-family: Calibri, sans-serif; vertical-align: middle; border-top: 0.5pt solid black; border-right: 0.5pt solid black; border-bottom: none; border-left: 0.5pt solid black; border-image: initial; text-wrap: nowrap; background: rgb(217, 225, 242); width: 36pt;&quot; class=&quot;xl96&quot; width=&quot;48&quot;&gt;Método&lt;/td&gt;&lt;td style=&quot;padding-top: 1px; padding-right: 1px; padding-left: 1px; font-size: 9pt; font-weight: 700; font-family: Calibri, sans-serif; vertical-align: middle; border-top: 0.5pt solid black; border-right: 0.5pt solid black; border-bottom: none; border-left: 0.5pt solid black; border-image: initial; text-wrap: nowrap; background: rgb(217, 225, 242); width: 45pt;&quot; class=&quot;xl96&quot; width=&quot;60&quot;&gt;Campo&lt;/td&gt;&lt;td style=&quot;padding-top: 1px; padding-right: 1px; padding-left: 1px; font-size: 9pt; font-weight: 700; font-family: Calibri, sans-serif; vertical-align: middle; border-top: 0.5pt solid black; border-right: 0.5pt solid black; border-bottom: none; border-left: 0.5pt solid black; border-image: initial; text-wrap: nowrap; background: rgb(217, 225, 242); width: 27pt;&quot; class=&quot;xl96&quot; width=&quot;36&quot;&gt;LNG&lt;/td&gt;&lt;td style=&quot;padding-top: 1px; padding-right: 1px; padding-left: 1px; font-size: 9pt; font-weight: 700; font-family: Calibri, sans-serif; vertical-align: middle; border-top: 0.5pt solid black; border-right: 0.5pt solid black; border-bottom: none; border-left: 0.5pt solid black; border-image: initial; text-wrap: nowrap; background: rgb(217, 225, 242); width: 36pt;&quot; class=&quot;xl96&quot; width=&quot;48&quot;&gt;TIPO&lt;/td&gt;&lt;td style=&quot;padding-top: 1px; padding-right: 1px; padding-left: 1px; font-size: 9pt; font-weight: 700; font-family: Calibri, sans-serif; vertical-align: middle; border-top: 0.5pt solid black; border-right: 0.5pt solid black; border-bottom: none; border-left: 0.5pt solid black; border-image: initial; text-wrap: nowrap; background: rgb(217, 225, 242); width: 56pt;&quot; class=&quot;xl96&quot; width=&quot;75&quot;&gt;DESCRIPCIÓN&lt;/td&gt;&lt;td style=&quot;padding-top: 1px; padding-right: 1px; padding-left: 1px; font-size: 9pt; font-weight: 700; font-family: Calibri, sans-serif; vertical-align: middle; border-top: 0.5pt solid black; border-right: 0.5pt solid black; border-bottom: none; border-left: 0.5pt solid black; border-image: initial; text-wrap: nowrap; background: rgb(217, 225, 242); width: 48pt;&quot; class=&quot;xl96&quot; width=&quot;64&quot;&gt;USO&lt;/td&gt;&lt;td style=&quot;padding-top: 1px; padding-right: 1px; padding-left: 1px; font-size: 9pt; font-weight: 700; font-family: Calibri, sans-serif; vertical-align: middle; border-top: 0.5pt solid black; border-right: 0.5pt solid black; border-bottom: none; border-left: 0.5pt solid black; border-image: initial; text-wrap: nowrap; background: rgb(217, 225, 242); width: 176pt;&quot; class=&quot;xl96&quot; width=&quot;234&quot;&gt;OBSERVACIONES&lt;/td&gt;&lt;/tr&gt;&lt;tr style=&quot;height: 62.25pt;&quot; height=&quot;83&quot;&gt;&lt;td style=&quot;padding-top: 1px; padding-right: 1px; padding-left: 1px; font-size: 9pt; font-family: Calibri, sans-serif; vertical-align: bottom; border-top: 0.5pt solid black; border-right: 0.5pt solid black; border-bottom: none; border-left: 0.5pt solid black; border-image: initial; text-wrap: nowrap; background: white; height: 62.25pt;&quot; class=&quot;xl174&quot; height=&quot;83&quot;&gt;Device Life Cycle&lt;/td&gt;&lt;td style=&quot;padding-top: 1px; padding-right: 1px; padding-left: 1px; font-size: 9pt; font-family: Calibri, sans-serif; vertical-align: bottom; border-top: 0.5pt solid black; border-right: none; border-bottom: none; border-left: 0.5pt solid black; border-image: initial; text-wrap: nowrap; background: white;&quot; class=&quot;xl175&quot;&gt;/v3/devices/blocks&lt;/td&gt;&lt;td style=&quot;padding-top: 1px; padding-right: 1px; padding-left: 1px; font-size: 9pt; font-family: Calibri, sans-serif; vertical-align: bottom; border-top: 0.5pt solid black; border-right: 0.5pt solid black; border-bottom: none; border-left: 0.5pt solid black; border-image: initial; text-wrap: nowrap; background: white;&quot; class=&quot;xl174&quot;&gt;GET&lt;/td&gt;&lt;td style=&quot;padding-top: 1px; padding-right: 1px; padding-left: 1px; color: rgb(0, 112, 192); font-size: 9pt; font-weight: 700; font-family: Calibri, sans-serif; vertical-align: bottom; border-top: 0.5pt solid black; border-right: 0.5pt solid black; border-bottom: none; border-left: none; border-image: initial; text-wrap: nowrap; background: white;&quot; class=&quot;xl176&quot;&gt;deviceId&lt;/td&gt;&lt;td style=&quot;padding-top: 1px; padding-right: 1px; padding-left: 1px; font-size: 9pt; font-family: Calibri, sans-serif; vertical-align: bottom; border-top: 0.5pt solid black; border-right: 0.5pt solid black; border-bottom: none; border-left: 0.5pt solid black; border-image: initial; text-wrap: nowrap; background: white;&quot; align=&quot;right&quot; class=&quot;xl174&quot;&gt;60&lt;/td&gt;&lt;td style=&quot;padding-top: 1px; padding-right: 1px; padding-left: 1px; font-size: 9pt; font-family: Calibri, sans-serif; vertical-align: bottom; border-top: 0.5pt solid black; border-right: 0.5pt solid black; border-bottom: none; border-left: 0.5pt solid black; border-image: initial; text-wrap: nowrap; background: white;&quot; class=&quot;xl174&quot;&gt;string&lt;/td&gt;&lt;td style=&quot;padding-top: 1px; padding-right: 1px; padding-left: 1px; font-size: 9pt; font-family: Calibri, sans-serif; vertical-align: bottom; border-top: 0.5pt solid black; border-right: 0.5pt solid black; border-bottom: none; border-left: 0.5pt solid black; border-image: initial; background: white; width: 56pt;&quot; class=&quot;xl177&quot; width=&quot;75&quot;&gt;device code&lt;/td&gt;&lt;td style=&quot;padding-top: 1px; padding-right: 1px; padding-left: 1px; font-size: 9pt; font-family: Calibri, sans-serif; vertical-align: bottom; border-top: 0.5pt solid black; border-right: 0.5pt solid black; border-bottom: none; border-left: 0.5pt solid black; border-image: initial; text-wrap: nowrap; background: white;&quot; class=&quot;xl174&quot;&gt;Requerido&lt;/td&gt;&lt;td style=&quot;padding-top: 1px; padding-right: 1px; padding-left: 1px; font-size: 9pt; font-family: Calibri, sans-serif; vertical-align: bottom; border-top: 0.5pt solid black; border-right: 0.5pt solid black; border-bottom: none; border-left: 0.5pt solid black; border-image: initial; background: white; width: 176pt;&quot; class=&quot;xl177&quot; width=&quot;234&quot;&gt;Se debe obtener el Device Id. Utilización de API CardData /v1/jwks y&lt;br&gt;/v1/device-id&lt;br&gt;- En invocaciones a través del Launcher, este concatenará el DeviceId&lt;/td&gt;&lt;/tr&gt;&lt;tr style=&quot;height: 15pt;&quot; height=&quot;20&quot;&gt;&lt;td style=&quot;padding-top: 1px; padding-right: 1px; padding-left: 1px; font-size: 9pt; font-family: Calibri, sans-serif; vertical-align: middle; border: 0.5pt solid black; text-wrap: nowrap; height: 15pt;&quot; class=&quot;xl178&quot; height=&quot;20&quot;&gt;&lt;/td&gt;&lt;td style=&quot;padding-top: 1px; padding-right: 1px; padding-left: 1px; font-size: 9pt; font-family: Calibri, sans-serif; vertical-align: middle; border: 0.5pt solid black; text-wrap: nowrap;&quot; class=&quot;xl178&quot;&gt;&lt;/td&gt;&lt;td style=&quot;padding-top: 1px; padding-right: 1px; padding-left: 1px; font-size: 9pt; font-family: Calibri, sans-serif; vertical-align: middle; border: 0.5pt solid black; text-wrap: nowrap;&quot; class=&quot;xl178&quot;&gt;&lt;/td&gt;&lt;td style=&quot;padding-top: 1px; padding-right: 1px; padding-left: 1px; font-size: 9pt; font-family: Calibri, sans-serif; vertical-align: middle; border: 0.5pt solid black; text-wrap: nowrap;&quot; class=&quot;xl178&quot;&gt;&lt;/td&gt;&lt;td style=&quot;padding-top: 1px; padding-right: 1px; padding-left: 1px; font-size: 9pt; font-family: Calibri, sans-serif; vertical-align: middle; border: 0.5pt solid black; text-wrap: nowrap;&quot; class=&quot;xl178&quot;&gt;&lt;/td&gt;&lt;td style=&quot;padding-top: 1px; padding-right: 1px; padding-left: 1px; font-size: 9pt; font-family: Calibri, sans-serif; vertical-align: middle; border: 0.5pt solid black; text-wrap: nowrap;&quot; class=&quot;xl178&quot;&gt;&lt;/td&gt;&lt;td style=&quot;padding-top: 1px; padding-right: 1px; padding-left: 1px; font-size: 9pt; font-family: Calibri, sans-serif; vertical-align: middle; border: 0.5pt solid black; text-wrap: nowrap;&quot; class=&quot;xl178&quot;&gt;&lt;/td&gt;&lt;td style=&quot;padding-top: 1px; padding-right: 1px; padding-left: 1px; font-size: 9pt; font-family: Calibri, sans-serif; vertical-align: middle; border: 0.5pt solid black; text-wrap: nowrap;&quot; class=&quot;xl178&quot;&gt;&lt;/td&gt;&lt;td style=&quot;padding-top: 1px; padding-right: 1px; padding-left: 1px; font-size: 9pt; font-family: Calibri, sans-serif; vertical-align: middle; border: 0.5pt solid black; text-wrap: nowrap;&quot; class=&quot;xl178&quot;&gt;No mapping, no lo usa el API Plard&lt;/td&gt;&lt;/tr&gt;&lt;tr style=&quot;height: 15pt;&quot; height=&quot;20&quot;&gt;&lt;td style=&quot;padding-top: 1px; padding-right: 1px; padding-left: 1px; font-size: 9pt; font-family: Calibri, sans-serif; vertical-align: middle; border: 0.5pt solid black; text-wrap: nowrap; height: 15pt;&quot; class=&quot;xl178&quot; height=&quot;20&quot;&gt;&lt;/td&gt;&lt;td style=&quot;padding-top: 1px; padding-right: 1px; padding-left: 1px; font-size: 9pt; font-family: Calibri, sans-serif; vertical-align: middle; border: 0.5pt solid black; text-wrap: nowrap;&quot; class=&quot;xl178&quot;&gt;&lt;/td&gt;&lt;td style=&quot;padding-top: 1px; padding-right: 1px; padding-left: 1px; font-size: 9pt; font-family: Calibri, sans-serif; vertical-align: middle; border: 0.5pt solid black; text-wrap: nowrap;&quot; class=&quot;xl178&quot;&gt;&lt;/td&gt;&lt;td style=&quot;padding-top: 1px; padding-right: 1px; padding-left: 1px; font-size: 9pt; font-family: Calibri, sans-serif; vertical-align: middle; border: 0.5pt solid black; text-wrap: nowrap;&quot; class=&quot;xl178&quot;&gt;&lt;/td&gt;&lt;td style=&quot;padding-top: 1px; padding-right: 1px; padding-left: 1px; font-size: 9pt; font-family: Calibri, sans-serif; vertical-align: middle; border: 0.5pt solid black; text-wrap: nowrap;&quot; class=&quot;xl178&quot;&gt;&lt;/td&gt;&lt;td style=&quot;padding-top: 1px; padding-right: 1px; padding-left: 1px; font-size: 9pt; font-family: Calibri, sans-serif; vertical-align: middle; border: 0.5pt solid black; text-wrap: nowrap;&quot; class=&quot;xl178&quot;&gt;&lt;/td&gt;&lt;td style=&quot;padding-top: 1px; padding-right: 1px; padding-left: 1px; font-size: 9pt; font-family: Calibri, sans-serif; vertical-align: middle; border: 0.5pt solid black; text-wrap: nowrap;&quot; class=&quot;xl178&quot;&gt;&lt;/td&gt;&lt;td style=&quot;padding-top: 1px; padding-right: 1px; padding-left: 1px; font-size: 9pt; font-family: Calibri, sans-serif; vertical-align: middle; border: 0.5pt solid black; text-wrap: nowrap;&quot; class=&quot;xl178&quot;&gt;&lt;/td&gt;&lt;td style=&quot;padding-top: 1px; padding-right: 1px; padding-left: 1px; font-size: 9pt; font-family: Calibri, sans-serif; vertical-align: middle; border: 0.5pt solid black; text-wrap: nowrap;&quot; class=&quot;xl178&quot;&gt;No mapping, no lo usa el API Plard&lt;/td&gt;&lt;/tr&gt;&lt;tr style=&quot;height: 15pt;&quot; height=&quot;20&quot;&gt;&lt;td style=&quot;padding-top: 1px; padding-right: 1px; padding-left: 1px; font-size: 9pt; font-family: Calibri, sans-serif; vertical-align: middle; border: 0.5pt solid black; text-wrap: nowrap; height: 15pt;&quot; class=&quot;xl178&quot; height=&quot;20&quot;&gt;&lt;/td&gt;&lt;td style=&quot;padding-top: 1px; padding-right: 1px; padding-left: 1px; font-size: 9pt; font-family: Calibri, sans-serif; vertical-align: middle; border: 0.5pt solid black; text-wrap: nowrap;&quot; class=&quot;xl178&quot;&gt;&lt;/td&gt;&lt;td style=&quot;padding-top: 1px; padding-right: 1px; padding-left: 1px; font-size: 9pt; font-family: Calibri, sans-serif; vertical-align: middle; border: 0.5pt solid black; text-wrap: nowrap;&quot; class=&quot;xl178&quot;&gt;&lt;/td&gt;&lt;td style=&quot;padding-top: 1px; padding-right: 1px; padding-left: 1px; font-size: 9pt; font-family: Calibri, sans-serif; vertical-align: middle; border: 0.5pt solid black; text-wrap: nowrap;&quot; class=&quot;xl178&quot;&gt;&lt;/td&gt;&lt;td style=&quot;padding-top: 1px; padding-right: 1px; padding-left: 1px; font-size: 9pt; font-family: Calibri, sans-serif; vertical-align: middle; border: 0.5pt solid black; text-wrap: nowrap;&quot; class=&quot;xl178&quot;&gt;&lt;/td&gt;&lt;td style=&quot;padding-top: 1px; padding-right: 1px; padding-left: 1px; font-size: 9pt; font-family: Calibri, sans-serif; vertical-align: middle; border: 0.5pt solid black; text-wrap: nowrap;&quot; class=&quot;xl178&quot;&gt;&lt;/td&gt;&lt;td style=&quot;padding-top: 1px; padding-right: 1px; padding-left: 1px; font-size: 9pt; font-family: Calibri, sans-serif; vertical-align: middle; border: 0.5pt solid black; text-wrap: nowrap;&quot; class=&quot;xl178&quot;&gt;&lt;/td&gt;&lt;td style=&quot;padding-top: 1px; padding-right: 1px; padding-left: 1px; font-size: 9pt; font-family: Calibri, sans-serif; vertical-align: middle; border: 0.5pt solid black; text-wrap: nowrap;&quot; class=&quot;xl178&quot;&gt;&lt;/td&gt;&lt;td style=&quot;padding-top: 1px; padding-right: 1px; padding-left: 1px; font-size: 9pt; font-family: Calibri, sans-serif; vertical-align: middle; border: 0.5pt solid black; text-wrap: nowrap;&quot; class=&quot;xl178&quot;&gt;No mapping, no lo usa el API Plard&lt;/td&gt;&lt;/tr&gt;&lt;/tbody&gt;&lt;/table&gt;&lt;/div&gt;" style="rounded=0;whiteSpace=wrap;html=1;" parent="1" vertex="1">
          <mxGeometry x="1635" y="3796" width="791" height="200" as="geometry" />
        </mxCell>
        <mxCell id="bNmyXN-axlHxdMonLR5W-25" value="Formato de Entrada:" style="rounded=0;whiteSpace=wrap;html=1;fillColor=#EEEEEE;strokeColor=#23445d;fontSize=14;fontStyle=1;align=left;" parent="1" vertex="1">
          <mxGeometry x="1636" y="3520" width="860" height="39.11" as="geometry" />
        </mxCell>
        <mxCell id="bNmyXN-axlHxdMonLR5W-26" value="&lt;font style=&quot;font-size: 12px; background-color: light-dark(#ffffff, var(--ge-dark-color, #121212));&quot;&gt;&lt;span style=&quot;text-wrap: nowrap;&quot;&gt;Request: API&amp;nbsp;&lt;/span&gt;&lt;span style=&quot;color: rgb(36, 36, 36); font-family: &amp;quot;Aptos Narrow&amp;quot;, Calibri, &amp;quot;sans-serif&amp;quot;, &amp;quot;Mongolian Baiti&amp;quot;, &amp;quot;Microsoft Yi Baiti&amp;quot;, &amp;quot;Javanese Text&amp;quot;, &amp;quot;Yu Gothic&amp;quot;; text-align: left; white-space-collapse: preserve; background-color: rgb(255, 255, 255);&quot;&gt;Device Life Cycle&lt;/span&gt;&lt;br style=&quot;padding: 0px; margin: 0px; text-wrap: nowrap;&quot;&gt;&lt;/font&gt;&lt;div style=&quot;&quot;&gt;&lt;font style=&quot;font-size: 12px; background-color: light-dark(#ffffff, var(--ge-dark-color, #121212));&quot;&gt;&lt;span style=&quot;text-wrap: nowrap; color: light-dark(rgb(0, 0, 0), rgb(255, 255, 255));&quot;&gt;(&lt;/span&gt;&lt;span style=&quot;color: rgb(36, 36, 36); font-family: &amp;quot;Aptos Narrow&amp;quot;, Calibri, &amp;quot;sans-serif&amp;quot;, &amp;quot;Mongolian Baiti&amp;quot;, &amp;quot;Microsoft Yi Baiti&amp;quot;, &amp;quot;Javanese Text&amp;quot;, &amp;quot;Yu Gothic&amp;quot;; text-align: left; white-space-collapse: preserve; background-color: rgb(255, 255, 255);&quot;&gt;/v3/devices/blocks&lt;/span&gt;&lt;span style=&quot;text-wrap: nowrap; color: light-dark(rgb(0, 0, 0), rgb(255, 255, 255));&quot;&gt;)&lt;/span&gt;&lt;/font&gt;&lt;/div&gt;" style="rounded=0;whiteSpace=wrap;html=1;fillColor=#EEEEEE;strokeColor=#23445d;fontSize=14;fontStyle=1;align=center;" parent="1" vertex="1">
          <mxGeometry x="1635" y="3757.89" width="791" height="39.11" as="geometry" />
        </mxCell>
        <mxCell id="bNmyXN-axlHxdMonLR5W-27" style="edgeStyle=orthogonalEdgeStyle;rounded=0;orthogonalLoop=1;jettySize=auto;html=1;exitX=0.5;exitY=1;exitDx=0;exitDy=0;" parent="1" edge="1">
          <mxGeometry relative="1" as="geometry">
            <mxPoint x="1044.999999999999" y="4325" as="sourcePoint" />
            <mxPoint x="1044.999999999999" y="4325" as="targetPoint" />
          </mxGeometry>
        </mxCell>
        <mxCell id="bNmyXN-axlHxdMonLR5W-28" value="Transacción Altair 390: LMPJ" style="rounded=0;whiteSpace=wrap;html=1;fillColor=#bac8d3;strokeColor=#23445d;fontSize=14;fontStyle=1;verticalAlign=top;container=0;" parent="1" vertex="1">
          <mxGeometry x="565" y="3646" width="981" height="42" as="geometry" />
        </mxCell>
        <mxCell id="bNmyXN-axlHxdMonLR5W-29" value="API" style="rounded=0;whiteSpace=wrap;html=1;fillColor=#bac8d3;strokeColor=#23445d;fontSize=14;fontStyle=1;verticalAlign=top;container=0;" parent="1" vertex="1">
          <mxGeometry x="1635" y="3715.89" width="791" height="42" as="geometry" />
        </mxCell>
        <mxCell id="C3mcdrV-Wh8sYGgw7Lf8-1" value="&lt;div style=&quot;font-size: medium; text-align: start;&quot; data-ccp-timestamp=&quot;1746516055663&quot;&gt;&lt;table style=&quot;border-collapse: collapse; width: 731pt;&quot; width=&quot;974&quot;&gt;&lt;colgroup&gt;&lt;col style=&quot;width: 17pt;&quot; width=&quot;23&quot;&gt;&lt;col style=&quot;width: 42pt;&quot; width=&quot;56&quot;&gt;&lt;col style=&quot;width: 93pt;&quot; width=&quot;124&quot;&gt;&lt;col style=&quot;width: 32pt;&quot; width=&quot;43&quot;&gt;&lt;col style=&quot;width: 48pt;&quot; width=&quot;64&quot;&gt;&lt;col style=&quot;width: 44pt;&quot; width=&quot;58&quot;&gt;&lt;col style=&quot;width: 214pt;&quot; width=&quot;285&quot;&gt;&lt;col style=&quot;width: 241pt;&quot; width=&quot;321&quot;&gt;&lt;/colgroup&gt;&lt;tbody&gt;&lt;tr style=&quot;height: 15pt;&quot; height=&quot;20&quot;&gt;&lt;td style=&quot;padding-top: 1px; padding-right: 1px; padding-left: 1px; color: rgb(0, 32, 96); font-size: 8pt; font-weight: 700; font-family: Calibri, sans-serif; vertical-align: middle; border: 0.5pt solid rgb(191, 191, 191); text-wrap: nowrap; background: rgb(242, 206, 239); width: 17pt; height: 15pt;&quot; class=&quot;xl225&quot; height=&quot;20&quot; width=&quot;23&quot;&gt;#&lt;/td&gt;&lt;td style=&quot;padding-top: 1px; padding-right: 1px; padding-left: 1px; color: rgb(0, 32, 96); font-size: 8pt; font-weight: 700; font-family: Calibri, sans-serif; vertical-align: middle; border: 0.5pt solid rgb(191, 191, 191); text-wrap: nowrap; background: rgb(242, 206, 239); width: 42pt;&quot; class=&quot;xl225&quot; width=&quot;56&quot;&gt;Campo&lt;/td&gt;&lt;td style=&quot;padding-top: 1px; padding-right: 1px; padding-left: 1px; color: rgb(0, 32, 96); font-size: 8pt; font-weight: 700; font-family: Calibri, sans-serif; vertical-align: middle; border: 0.5pt solid rgb(191, 191, 191); text-wrap: nowrap; background: rgb(242, 206, 239); width: 93pt;&quot; class=&quot;xl225&quot; width=&quot;124&quot;&gt;Descripcion de Campo&lt;/td&gt;&lt;td style=&quot;padding-top: 1px; padding-right: 1px; padding-left: 1px; color: rgb(0, 32, 96); font-size: 8pt; font-weight: 700; font-family: Calibri, sans-serif; vertical-align: middle; border: 0.5pt solid rgb(191, 191, 191); text-wrap: nowrap; background: rgb(242, 206, 239); width: 32pt;&quot; class=&quot;xl225&quot; width=&quot;43&quot;&gt;Longitud&lt;/td&gt;&lt;td style=&quot;padding-top: 1px; padding-right: 1px; padding-left: 1px; color: rgb(0, 32, 96); font-size: 8pt; font-weight: 700; font-family: Calibri, sans-serif; vertical-align: middle; border: 0.5pt solid rgb(191, 191, 191); text-wrap: nowrap; text-align: center; background: rgb(242, 206, 239); width: 48pt;&quot; class=&quot;xl262&quot; width=&quot;64&quot;&gt;Tipo&lt;/td&gt;&lt;td style=&quot;padding-top: 1px; padding-right: 1px; padding-left: 1px; color: rgb(0, 32, 96); font-size: 8pt; font-weight: 700; font-family: Calibri, sans-serif; vertical-align: middle; border: 0.5pt solid rgb(191, 191, 191); text-wrap: nowrap; background: rgb(242, 206, 239); width: 44pt;&quot; class=&quot;xl225&quot; width=&quot;58&quot;&gt;Req./Opc.&lt;/td&gt;&lt;td style=&quot;padding-top: 1px; padding-right: 1px; padding-left: 1px; color: rgb(0, 32, 96); font-size: 8pt; font-weight: 700; font-family: Calibri, sans-serif; vertical-align: middle; border: 0.5pt solid rgb(191, 191, 191); text-wrap: nowrap; background: rgb(242, 206, 239); width: 214pt;&quot; class=&quot;xl225&quot; width=&quot;285&quot;&gt;Notas, complemento&lt;/td&gt;&lt;td style=&quot;padding-top: 1px; padding-right: 1px; padding-left: 1px; color: rgb(0, 32, 96); font-size: 8pt; font-weight: 700; font-family: Calibri, sans-serif; vertical-align: middle; border: 0.5pt solid rgb(191, 191, 191); text-wrap: nowrap; background: rgb(242, 206, 239); width: 241pt;&quot; class=&quot;xl225&quot; width=&quot;321&quot;&gt;Descripciones detalladas&lt;/td&gt;&lt;/tr&gt;&lt;tr style=&quot;height: 23.25pt;&quot; height=&quot;31&quot;&gt;&lt;td style=&quot;padding-top: 1px; padding-right: 1px; padding-left: 1px; color: rgb(0, 32, 96); font-size: 8pt; font-family: Calibri, sans-serif; vertical-align: middle; border: 0.5pt solid rgb(191, 191, 191); text-wrap: nowrap; height: 23.25pt;&quot; class=&quot;xl173&quot; height=&quot;31&quot;&gt;01&lt;/td&gt;&lt;td style=&quot;padding-top: 1px; padding-right: 1px; padding-left: 1px; color: rgb(0, 32, 96); font-size: 8pt; font-family: Calibri, sans-serif; vertical-align: middle; border: 0.5pt solid rgb(191, 191, 191); text-wrap: nowrap;&quot; class=&quot;xl173&quot;&gt;CODENT&amp;nbsp;&lt;/td&gt;&lt;td style=&quot;padding-top: 1px; padding-right: 1px; padding-left: 1px; color: rgb(0, 32, 96); font-size: 8pt; font-family: Calibri, sans-serif; vertical-align: middle; border: 0.5pt solid rgb(191, 191, 191); text-wrap: nowrap;&quot; class=&quot;xl173&quot;&gt;CODENT ENTRADA&amp;nbsp;&amp;nbsp;&amp;nbsp;&amp;nbsp;&amp;nbsp;&amp;nbsp;&lt;/td&gt;&lt;td style=&quot;padding-top: 1px; padding-right: 1px; padding-left: 1px; color: rgb(0, 32, 96); font-size: 8pt; font-family: Calibri, sans-serif; vertical-align: middle; border: 0.5pt solid rgb(191, 191, 191); text-wrap: nowrap; text-align: center;&quot; class=&quot;xl230&quot;&gt;4&lt;/td&gt;&lt;td style=&quot;padding-top: 1px; padding-right: 1px; padding-left: 1px; color: rgb(0, 32, 96); font-size: 8pt; font-family: Calibri, sans-serif; vertical-align: middle; border: 0.5pt solid rgb(191, 191, 191); text-wrap: nowrap;&quot; class=&quot;xl173&quot;&gt;Alfanumerico&lt;/td&gt;&lt;td style=&quot;padding-top: 1px; padding-right: 1px; padding-left: 1px; color: rgb(0, 32, 96); font-size: 8pt; font-weight: 700; font-family: Calibri, sans-serif; vertical-align: middle; border-top: 0.5pt solid rgb(191, 191, 191); border-right: none; border-bottom: 0.5pt solid rgb(191, 191, 191); border-left: 0.5pt solid rgb(191, 191, 191); border-image: initial; text-wrap: nowrap;&quot; class=&quot;xl231&quot;&gt;Requerido&lt;/td&gt;&lt;td style=&quot;padding-top: 1px; padding-right: 1px; padding-left: 1px; color: red; font-size: 8pt; font-family: Calibri, sans-serif; vertical-align: middle; border-top: 0.5pt solid rgb(217, 217, 217); border-right: none; border-bottom: 0.5pt solid rgb(217, 217, 217); border-left: 0.5pt solid rgb(217, 217, 217); border-image: initial; width: 214pt;&quot; class=&quot;xl259&quot; width=&quot;285&quot;&gt;Entrada, se valida que este informado.&lt;/td&gt;&lt;td style=&quot;padding-top: 1px; padding-right: 1px; padding-left: 1px; font-size: 8pt; font-family: Calibri, sans-serif; vertical-align: middle; border: none; text-wrap: nowrap;&quot; class=&quot;xl236&quot;&gt;&lt;/td&gt;&lt;/tr&gt;&lt;tr style=&quot;height: 23.25pt;&quot; height=&quot;31&quot;&gt;&lt;td style=&quot;padding-top: 1px; padding-right: 1px; padding-left: 1px; color: rgb(0, 32, 96); font-size: 8pt; font-family: Calibri, sans-serif; vertical-align: middle; border: 0.5pt solid rgb(191, 191, 191); text-wrap: nowrap; height: 23.25pt;&quot; class=&quot;xl173&quot; height=&quot;31&quot;&gt;02&lt;/td&gt;&lt;td style=&quot;padding-top: 1px; padding-right: 1px; padding-left: 1px; color: rgb(0, 32, 96); font-size: 8pt; font-family: Calibri, sans-serif; vertical-align: middle; border: 0.5pt solid rgb(191, 191, 191); text-wrap: nowrap;&quot; class=&quot;xl173&quot;&gt;CENTALT&lt;/td&gt;&lt;td style=&quot;padding-top: 1px; padding-right: 1px; padding-left: 1px; color: rgb(0, 32, 96); font-size: 8pt; font-family: Calibri, sans-serif; vertical-align: middle; border: 0.5pt solid rgb(191, 191, 191); text-wrap: nowrap;&quot; class=&quot;xl173&quot;&gt;CENTRO ALTA ENTRADA&amp;nbsp;&lt;/td&gt;&lt;td style=&quot;padding-top: 1px; padding-right: 1px; padding-left: 1px; color: rgb(0, 32, 96); font-size: 8pt; font-family: Calibri, sans-serif; vertical-align: middle; border: 0.5pt solid rgb(191, 191, 191); text-wrap: nowrap; text-align: center;&quot; class=&quot;xl230&quot;&gt;4&lt;/td&gt;&lt;td style=&quot;padding-top: 1px; padding-right: 1px; padding-left: 1px; color: rgb(0, 32, 96); font-size: 8pt; font-family: Calibri, sans-serif; vertical-align: middle; border: 0.5pt solid rgb(191, 191, 191); text-wrap: nowrap;&quot; class=&quot;xl173&quot;&gt;Alfanumerico&lt;/td&gt;&lt;td style=&quot;padding-top: 1px; padding-right: 1px; padding-left: 1px; color: rgb(0, 32, 96); font-size: 8pt; font-weight: 700; font-family: Calibri, sans-serif; vertical-align: middle; border-top: 0.5pt solid rgb(191, 191, 191); border-right: none; border-bottom: 0.5pt solid rgb(191, 191, 191); border-left: 0.5pt solid rgb(191, 191, 191); border-image: initial; text-wrap: nowrap;&quot; class=&quot;xl231&quot;&gt;Requerido&lt;/td&gt;&lt;td style=&quot;padding-top: 1px; padding-right: 1px; padding-left: 1px; color: red; font-size: 8pt; font-family: Calibri, sans-serif; vertical-align: middle; border-top: 0.5pt solid rgb(217, 217, 217); border-right: none; border-bottom: 0.5pt solid rgb(217, 217, 217); border-left: 0.5pt solid rgb(217, 217, 217); border-image: initial; width: 214pt;&quot; class=&quot;xl259&quot; width=&quot;285&quot;&gt;Entrada, se valida que este informado.&lt;/td&gt;&lt;td style=&quot;padding-top: 1px; padding-right: 1px; padding-left: 1px; font-size: 8pt; font-family: Calibri, sans-serif; vertical-align: middle; border: none; text-wrap: nowrap;&quot; class=&quot;xl236&quot;&gt;&lt;/td&gt;&lt;/tr&gt;&lt;tr style=&quot;height: 23.25pt;&quot; height=&quot;31&quot;&gt;&lt;td style=&quot;padding-top: 1px; padding-right: 1px; padding-left: 1px; color: rgb(0, 32, 96); font-size: 8pt; font-family: Calibri, sans-serif; vertical-align: middle; border: 0.5pt solid rgb(191, 191, 191); text-wrap: nowrap; height: 23.25pt;&quot; class=&quot;xl173&quot; height=&quot;31&quot;&gt;03&lt;/td&gt;&lt;td style=&quot;padding-top: 1px; padding-right: 1px; padding-left: 1px; color: rgb(0, 32, 96); font-size: 8pt; font-family: Calibri, sans-serif; vertical-align: middle; border: 0.5pt solid rgb(191, 191, 191); text-wrap: nowrap;&quot; class=&quot;xl173&quot;&gt;CUENTA&amp;nbsp;&lt;/td&gt;&lt;td style=&quot;padding-top: 1px; padding-right: 1px; padding-left: 1px; color: rgb(0, 32, 96); font-size: 8pt; font-family: Calibri, sans-serif; vertical-align: middle; border: 0.5pt solid rgb(191, 191, 191); text-wrap: nowrap;&quot; class=&quot;xl173&quot;&gt;CUENTA ENTRADA&amp;nbsp;&amp;nbsp;&amp;nbsp;&amp;nbsp;&amp;nbsp;&amp;nbsp;&lt;/td&gt;&lt;td style=&quot;padding-top: 1px; padding-right: 1px; padding-left: 1px; color: rgb(0, 32, 96); font-size: 8pt; font-family: Calibri, sans-serif; vertical-align: middle; border: 0.5pt solid rgb(191, 191, 191); text-wrap: nowrap; text-align: center;&quot; class=&quot;xl230&quot;&gt;12&lt;/td&gt;&lt;td style=&quot;padding-top: 1px; padding-right: 1px; padding-left: 1px; color: rgb(0, 32, 96); font-size: 8pt; font-family: Calibri, sans-serif; vertical-align: middle; border: 0.5pt solid rgb(191, 191, 191); text-wrap: nowrap;&quot; class=&quot;xl173&quot;&gt;Alfanumerico&lt;/td&gt;&lt;td style=&quot;padding-top: 1px; padding-right: 1px; padding-left: 1px; color: rgb(0, 32, 96); font-size: 8pt; font-weight: 700; font-family: Calibri, sans-serif; vertical-align: middle; border-top: 0.5pt solid rgb(191, 191, 191); border-right: none; border-bottom: 0.5pt solid rgb(191, 191, 191); border-left: 0.5pt solid rgb(191, 191, 191); border-image: initial; text-wrap: nowrap;&quot; class=&quot;xl231&quot;&gt;Requerido&lt;/td&gt;&lt;td style=&quot;padding-top: 1px; padding-right: 1px; padding-left: 1px; color: red; font-size: 8pt; font-family: Calibri, sans-serif; vertical-align: middle; border-top: 0.5pt solid rgb(217, 217, 217); border-right: none; border-bottom: 0.5pt solid rgb(217, 217, 217); border-left: 0.5pt solid rgb(217, 217, 217); border-image: initial; width: 214pt;&quot; class=&quot;xl259&quot; width=&quot;285&quot;&gt;Entrada, se valida que este informado.&lt;/td&gt;&lt;td style=&quot;padding-top: 1px; padding-right: 1px; padding-left: 1px; font-size: 8pt; font-family: Calibri, sans-serif; vertical-align: middle; border: none; text-wrap: nowrap;&quot; class=&quot;xl236&quot;&gt;&lt;/td&gt;&lt;/tr&gt;&lt;tr style=&quot;height: 15pt;&quot; height=&quot;20&quot;&gt;&lt;td style=&quot;padding-top: 1px; padding-right: 1px; padding-left: 1px; color: rgb(0, 32, 96); font-size: 8pt; font-family: Calibri, sans-serif; vertical-align: middle; border: 0.5pt solid rgb(191, 191, 191); text-wrap: nowrap; height: 15pt;&quot; class=&quot;xl173&quot; height=&quot;20&quot;&gt;04&lt;/td&gt;&lt;td style=&quot;padding-top: 1px; padding-right: 1px; padding-left: 1px; color: rgb(0, 32, 96); font-size: 8pt; font-family: Calibri, sans-serif; vertical-align: middle; border: 0.5pt solid rgb(191, 191, 191); text-wrap: nowrap;&quot; class=&quot;xl173&quot;&gt;PAN&amp;nbsp;&amp;nbsp;&amp;nbsp;&amp;nbsp;&lt;/td&gt;&lt;td style=&quot;padding-top: 1px; padding-right: 1px; padding-left: 1px; color: rgb(0, 32, 96); font-size: 8pt; font-family: Calibri, sans-serif; vertical-align: middle; border: 0.5pt solid rgb(191, 191, 191); text-wrap: nowrap;&quot; class=&quot;xl173&quot;&gt;TARJETA&amp;nbsp;&amp;nbsp;&amp;nbsp;&amp;nbsp;&amp;nbsp;&amp;nbsp;&amp;nbsp;&amp;nbsp;&amp;nbsp;&amp;nbsp;&amp;nbsp;&amp;nbsp;&amp;nbsp;&lt;/td&gt;&lt;td style=&quot;padding-top: 1px; padding-right: 1px; padding-left: 1px; color: rgb(0, 32, 96); font-size: 8pt; font-family: Calibri, sans-serif; vertical-align: middle; border: 0.5pt solid rgb(191, 191, 191); text-wrap: nowrap; text-align: center;&quot; class=&quot;xl230&quot;&gt;22&lt;/td&gt;&lt;td style=&quot;padding-top: 1px; padding-right: 1px; padding-left: 1px; color: rgb(0, 32, 96); font-size: 8pt; font-family: Calibri, sans-serif; vertical-align: middle; border: 0.5pt solid rgb(191, 191, 191); text-wrap: nowrap;&quot; class=&quot;xl173&quot;&gt;Alfanumerico&lt;/td&gt;&lt;td style=&quot;padding-top: 1px; padding-right: 1px; padding-left: 1px; color: rgb(0, 32, 96); font-size: 8pt; font-weight: 700; font-family: Calibri, sans-serif; vertical-align: middle; border-top: 0.5pt solid rgb(191, 191, 191); border-right: none; border-bottom: 0.5pt solid rgb(191, 191, 191); border-left: 0.5pt solid rgb(191, 191, 191); border-image: initial; text-wrap: nowrap;&quot; class=&quot;xl231&quot;&gt;Requerido&lt;/td&gt;&lt;td style=&quot;padding-top: 1px; padding-right: 1px; padding-left: 1px; color: red; font-size: 8pt; font-family: Calibri, sans-serif; vertical-align: middle; border-top: 0.5pt solid rgb(217, 217, 217); border-right: none; border-bottom: 0.5pt solid rgb(217, 217, 217); border-left: 0.5pt solid rgb(217, 217, 217); border-image: initial; width: 214pt;&quot; class=&quot;xl259&quot; width=&quot;285&quot;&gt;Entrada, se valida que este informado.&lt;/td&gt;&lt;td style=&quot;padding-top: 1px; padding-right: 1px; padding-left: 1px; font-size: 8pt; font-family: Calibri, sans-serif; vertical-align: middle; border: none; text-wrap: nowrap;&quot; class=&quot;xl236&quot;&gt;&lt;/td&gt;&lt;/tr&gt;&lt;tr style=&quot;height: 40.5pt;&quot; height=&quot;54&quot;&gt;&lt;td style=&quot;padding-top: 1px; padding-right: 1px; padding-left: 1px; color: rgb(0, 32, 96); font-size: 8pt; font-family: Calibri, sans-serif; vertical-align: middle; border: 0.5pt solid rgb(191, 191, 191); text-wrap: nowrap; height: 40.5pt;&quot; class=&quot;xl173&quot; height=&quot;54&quot;&gt;05&lt;/td&gt;&lt;td style=&quot;padding-top: 1px; padding-right: 1px; padding-left: 1px; color: rgb(0, 32, 96); font-size: 8pt; font-family: Calibri, sans-serif; vertical-align: middle; border: 0.5pt solid rgb(191, 191, 191); text-wrap: nowrap;&quot; class=&quot;xl173&quot;&gt;NUMAUT&amp;nbsp;&lt;/td&gt;&lt;td style=&quot;padding-top: 1px; padding-right: 1px; padding-left: 1px; color: rgb(0, 32, 96); font-size: 8pt; font-family: Calibri, sans-serif; vertical-align: middle; border: 0.5pt solid rgb(191, 191, 191); text-wrap: nowrap;&quot; class=&quot;xl173&quot;&gt;NUMERO DE AUTORIZACI&lt;/td&gt;&lt;td style=&quot;padding-top: 1px; padding-right: 1px; padding-left: 1px; color: rgb(0, 32, 96); font-size: 8pt; font-family: Calibri, sans-serif; vertical-align: middle; border: 0.5pt solid rgb(191, 191, 191); text-wrap: nowrap; text-align: center;&quot; class=&quot;xl230&quot;&gt;6&lt;/td&gt;&lt;td style=&quot;padding-top: 1px; padding-right: 1px; padding-left: 1px; color: rgb(0, 32, 96); font-size: 8pt; font-family: Calibri, sans-serif; vertical-align: middle; border: 0.5pt solid rgb(191, 191, 191); text-wrap: nowrap;&quot; class=&quot;xl173&quot;&gt;Alfanumerico&lt;/td&gt;&lt;td style=&quot;padding-top: 1px; padding-right: 1px; padding-left: 1px; color: rgb(0, 32, 96); font-size: 8pt; font-family: Calibri, sans-serif; vertical-align: middle; border-top: 0.5pt solid rgb(191, 191, 191); border-right: none; border-bottom: 0.5pt solid rgb(191, 191, 191); border-left: 0.5pt solid rgb(191, 191, 191); border-image: initial; text-wrap: nowrap;&quot; class=&quot;xl237&quot;&gt;Opcional&lt;/td&gt;&lt;td style=&quot;padding-top: 1px; padding-right: 1px; padding-left: 1px; color: rgb(0, 112, 192); font-size: 8pt; font-family: Calibri, sans-serif; vertical-align: middle; border-top: 0.5pt solid rgb(217, 217, 217); border-right: none; border-bottom: 0.5pt solid rgb(217, 217, 217); border-left: 0.5pt solid rgb(217, 217, 217); border-image: initial; width: 214pt;&quot; class=&quot;xl253&quot; width=&quot;285&quot;&gt;&lt;span style=&quot;color: red; font-size: 8pt;&quot; class=&quot;font65&quot;&gt;Entrada: Se valida que este informado NUMAUT o SIAIDCD.&lt;/span&gt;&lt;span style=&quot;font-size: 8pt;&quot; class=&quot;font66&quot;&gt; Salida. Para CREDITO se obtiene de tabla movimientos del extracto &lt;/span&gt;&lt;span style=&quot;color: red; font-size: 8pt;&quot; class=&quot;font65&quot;&gt;MPDT012&lt;/span&gt;&lt;span style=&quot;font-size: 8pt;&quot; class=&quot;font66&quot;&gt;, para DEBITO se obtiene de tabla de movimientos &lt;/span&gt;&lt;span style=&quot;color: red; font-size: 8pt;&quot; class=&quot;font65&quot;&gt;MPDT090&lt;/span&gt;&lt;/td&gt;&lt;td style=&quot;padding-top: 1px; padding-right: 1px; padding-left: 1px; font-size: 8pt; font-family: Calibri, sans-serif; vertical-align: middle; border: none; width: 241pt;&quot; class=&quot;xl242&quot; width=&quot;321&quot;&gt;El código de autorización, es un número para identificar la operación/movimiento, se entrega al cliente con el voucher de pago&lt;br&gt;No es único, pero si es un identificador fácil de rastrear&lt;/td&gt;&lt;/tr&gt;&lt;tr style=&quot;height: 46.5pt;&quot; height=&quot;62&quot;&gt;&lt;td style=&quot;padding-top: 1px; padding-right: 1px; padding-left: 1px; color: rgb(0, 32, 96); font-size: 8pt; font-family: Calibri, sans-serif; vertical-align: middle; border: 0.5pt solid rgb(191, 191, 191); text-wrap: nowrap; height: 46.5pt;&quot; class=&quot;xl173&quot; height=&quot;62&quot;&gt;06&lt;/td&gt;&lt;td style=&quot;padding-top: 1px; padding-right: 1px; padding-left: 1px; color: rgb(0, 32, 96); font-size: 8pt; font-family: Calibri, sans-serif; vertical-align: middle; border: 0.5pt solid rgb(191, 191, 191); text-wrap: nowrap;&quot; class=&quot;xl173&quot;&gt;FECFAC&amp;nbsp;&lt;/td&gt;&lt;td style=&quot;padding-top: 1px; padding-right: 1px; padding-left: 1px; color: rgb(0, 32, 96); font-size: 8pt; font-family: Calibri, sans-serif; vertical-align: middle; border: 0.5pt solid rgb(191, 191, 191); text-wrap: nowrap;&quot; class=&quot;xl173&quot;&gt;FECHA DE OPERACION&amp;nbsp;&amp;nbsp;&lt;/td&gt;&lt;td style=&quot;padding-top: 1px; padding-right: 1px; padding-left: 1px; color: rgb(0, 32, 96); font-size: 8pt; font-family: Calibri, sans-serif; vertical-align: middle; border: 0.5pt solid rgb(191, 191, 191); text-wrap: nowrap; text-align: center;&quot; class=&quot;xl230&quot;&gt;10&lt;/td&gt;&lt;td style=&quot;padding-top: 1px; padding-right: 1px; padding-left: 1px; color: rgb(0, 32, 96); font-size: 8pt; font-family: Calibri, sans-serif; vertical-align: middle; border: 0.5pt solid rgb(191, 191, 191); text-wrap: nowrap;&quot; class=&quot;xl173&quot;&gt;Alfanumerico&lt;/td&gt;&lt;td style=&quot;padding-top: 1px; padding-right: 1px; padding-left: 1px; color: rgb(0, 32, 96); font-size: 8pt; font-weight: 700; font-family: Calibri, sans-serif; vertical-align: middle; border-top: 0.5pt solid rgb(191, 191, 191); border-right: none; border-bottom: 0.5pt solid rgb(191, 191, 191); border-left: 0.5pt solid rgb(191, 191, 191); border-image: initial; text-wrap: nowrap;&quot; class=&quot;xl231&quot;&gt;Requerido&lt;/td&gt;&lt;td style=&quot;padding-top: 1px; padding-right: 1px; padding-left: 1px; color: red; font-size: 8pt; font-family: Calibri, sans-serif; vertical-align: middle; border-top: 0.5pt solid rgb(217, 217, 217); border-right: none; border-bottom: 0.5pt solid rgb(217, 217, 217); border-left: 0.5pt solid rgb(217, 217, 217); border-image: initial; width: 214pt;&quot; class=&quot;xl259&quot; width=&quot;285&quot;&gt;Entrada, se valida que este informado, en formato AAAA-MM-DD&lt;/td&gt;&lt;td style=&quot;padding-top: 1px; padding-right: 1px; padding-left: 1px; font-size: 8pt; font-family: Calibri, sans-serif; vertical-align: middle; border: none; width: 241pt;&quot; class=&quot;xl242&quot; width=&quot;321&quot;&gt;Es la fecha en que se genera la factura, tiene que ver con la fecha de operación, sin embargo, no necesariamente implica una operación de usuario puede ser que se genere una factura por sistema, por ejemplo, un Importe Inicial o el cargo de alguna comisión.&lt;/td&gt;&lt;/tr&gt;&lt;tr style=&quot;height: 42pt;&quot; height=&quot;56&quot;&gt;&lt;td style=&quot;padding-top: 1px; padding-right: 1px; padding-left: 1px; color: rgb(0, 32, 96); font-size: 8pt; font-family: Calibri, sans-serif; vertical-align: middle; border: 0.5pt solid rgb(191, 191, 191); text-wrap: nowrap; height: 42pt;&quot; class=&quot;xl173&quot; height=&quot;56&quot;&gt;07&lt;/td&gt;&lt;td style=&quot;padding-top: 1px; padding-right: 1px; padding-left: 1px; color: rgb(0, 32, 96); font-size: 8pt; font-family: Calibri, sans-serif; vertical-align: middle; border: 0.5pt solid rgb(191, 191, 191); text-wrap: nowrap;&quot; class=&quot;xl173&quot;&gt;SIAIDCD&lt;/td&gt;&lt;td style=&quot;padding-top: 1px; padding-right: 1px; padding-left: 1px; color: rgb(0, 32, 96); font-size: 8pt; font-family: Calibri, sans-serif; vertical-align: middle; border: 0.5pt solid rgb(191, 191, 191); text-wrap: nowrap; background: yellow;&quot; class=&quot;xl243&quot;&gt;IDENTIFICADOR SIA&lt;/td&gt;&lt;td style=&quot;padding-top: 1px; padding-right: 1px; padding-left: 1px; color: rgb(0, 32, 96); font-size: 8pt; font-family: Calibri, sans-serif; vertical-align: middle; border: 0.5pt solid rgb(191, 191, 191); text-wrap: nowrap; text-align: center;&quot; class=&quot;xl230&quot;&gt;16&lt;/td&gt;&lt;td style=&quot;padding-top: 1px; padding-right: 1px; padding-left: 1px; color: rgb(0, 32, 96); font-size: 8pt; font-family: Calibri, sans-serif; vertical-align: middle; border: 0.5pt solid rgb(191, 191, 191); text-wrap: nowrap;&quot; class=&quot;xl173&quot;&gt;Alfanumerico&lt;/td&gt;&lt;td style=&quot;padding-top: 1px; padding-right: 1px; padding-left: 1px; color: rgb(0, 32, 96); font-size: 8pt; font-family: Calibri, sans-serif; vertical-align: middle; border-top: 0.5pt solid rgb(191, 191, 191); border-right: none; border-bottom: 0.5pt solid rgb(191, 191, 191); border-left: 0.5pt solid rgb(191, 191, 191); border-image: initial; text-wrap: nowrap;&quot; class=&quot;xl237&quot;&gt;Opcional&lt;/td&gt;&lt;td style=&quot;padding-top: 1px; padding-right: 1px; padding-left: 1px; color: rgb(0, 112, 192); font-size: 8pt; font-family: Calibri, sans-serif; vertical-align: middle; border-top: 0.5pt solid rgb(217, 217, 217); border-right: none; border-bottom: 0.5pt solid rgb(217, 217, 217); border-left: 0.5pt solid rgb(217, 217, 217); border-image: initial; width: 214pt;&quot; class=&quot;xl253&quot; width=&quot;285&quot;&gt;&lt;span style=&quot;color: red; font-size: 8pt;&quot; class=&quot;font65&quot;&gt;Entrada: Se valida que este informado NUMAUT o SIAIDCD.&lt;/span&gt;&lt;span style=&quot;font-size: 8pt;&quot; class=&quot;font66&quot;&gt; Salida. Para CREDITO se obtiene de tabla movimientos del extracto &lt;/span&gt;&lt;span style=&quot;color: red; font-size: 8pt;&quot; class=&quot;font65&quot;&gt;MPDT012&lt;/span&gt;&lt;span style=&quot;font-size: 8pt;&quot; class=&quot;font66&quot;&gt;, para DEBITO se obtiene de tabla de movimientos &lt;/span&gt;&lt;span style=&quot;color: red; font-size: 8pt;&quot; class=&quot;font65&quot;&gt;MPDT090&lt;/span&gt;&lt;/td&gt;&lt;td style=&quot;padding-top: 1px; padding-right: 1px; padding-left: 1px; font-size: 8pt; font-family: Calibri, sans-serif; vertical-align: middle; border: none; width: 241pt;&quot; class=&quot;xl242&quot; width=&quot;321&quot;&gt;Es un ID de autorización UNICO, este lo entrega Stratos.&lt;br&gt;Este dato no lo conoce el cliente, solo se conoce de forma interna por área de operaciones&lt;/td&gt;&lt;/tr&gt;&lt;tr style=&quot;height: 32.25pt;&quot; height=&quot;43&quot;&gt;&lt;td style=&quot;padding-top: 1px; padding-right: 1px; padding-left: 1px; color: rgb(0, 32, 96); font-size: 8pt; font-family: Calibri, sans-serif; vertical-align: middle; border: 0.5pt solid rgb(191, 191, 191); text-wrap: nowrap; height: 32.25pt;&quot; class=&quot;xl173&quot; height=&quot;43&quot;&gt;08&lt;/td&gt;&lt;td style=&quot;padding-top: 1px; padding-right: 1px; padding-left: 1px; color: rgb(0, 32, 96); font-size: 8pt; font-family: Calibri, sans-serif; vertical-align: middle; border: 0.5pt solid rgb(191, 191, 191); text-wrap: nowrap;&quot; class=&quot;xl173&quot;&gt;EMPRESA&lt;/td&gt;&lt;td style=&quot;padding-top: 1px; padding-right: 1px; padding-left: 1px; color: rgb(0, 32, 96); font-size: 8pt; font-family: Calibri, sans-serif; vertical-align: middle; border: 0.5pt solid rgb(191, 191, 191); text-wrap: nowrap; background: rgb(208, 208, 208);&quot; class=&quot;xl245&quot;&gt;EMPRESA MULT&amp;nbsp;&amp;nbsp;&amp;nbsp;&amp;nbsp;&amp;nbsp;&amp;nbsp;&amp;nbsp;&amp;nbsp;&lt;/td&gt;&lt;td style=&quot;padding-top: 1px; padding-right: 1px; padding-left: 1px; color: rgb(0, 32, 96); font-size: 8pt; font-family: Calibri, sans-serif; vertical-align: middle; border: 0.5pt solid rgb(191, 191, 191); text-wrap: nowrap; text-align: center;&quot; class=&quot;xl230&quot;&gt;4&lt;/td&gt;&lt;td style=&quot;padding-top: 1px; padding-right: 1px; padding-left: 1px; color: rgb(0, 32, 96); font-size: 8pt; font-family: Calibri, sans-serif; vertical-align: middle; border: 0.5pt solid rgb(191, 191, 191); text-wrap: nowrap;&quot; class=&quot;xl173&quot;&gt;Alfanumerico&lt;/td&gt;&lt;td style=&quot;padding-top: 1px; padding-right: 1px; padding-left: 1px; color: rgb(0, 32, 96); font-size: 8pt; font-family: Calibri, sans-serif; vertical-align: middle; border-top: 0.5pt solid rgb(191, 191, 191); border-right: none; border-bottom: 0.5pt solid rgb(191, 191, 191); border-left: 0.5pt solid rgb(191, 191, 191); border-image: initial; text-wrap: nowrap;&quot; class=&quot;xl237&quot;&gt;Opcional&lt;/td&gt;&lt;td style=&quot;padding-top: 1px; padding-right: 1px; padding-left: 1px; color: gray; font-size: 8pt; font-family: Calibri, sans-serif; vertical-align: middle; border-top: 0.5pt solid rgb(217, 217, 217); border-right: none; border-bottom: 0.5pt solid rgb(217, 217, 217); border-left: 0.5pt solid rgb(217, 217, 217); border-image: initial; width: 214pt;&quot; class=&quot;xl261&quot; width=&quot;285&quot;&gt;No se usa campo en esta transacción.&lt;/td&gt;&lt;td style=&quot;padding-top: 1px; padding-right: 1px; padding-left: 1px; font-size: 8pt; font-family: Calibri, sans-serif; vertical-align: middle; border: none; width: 241pt;&quot; class=&quot;xl242&quot; width=&quot;321&quot;&gt;Se requiere informar en espacios, ya que el canal así espera la trama, pero nosotros no lo informamos en ningún caso. Estos campos eran para un plan de hacer las transacciones multicanal, multiempresa, etc.&lt;/td&gt;&lt;/tr&gt;&lt;tr style=&quot;height: 34.5pt;&quot; height=&quot;46&quot;&gt;&lt;td style=&quot;padding-top: 1px; padding-right: 1px; padding-left: 1px; color: rgb(0, 32, 96); font-size: 8pt; font-family: Calibri, sans-serif; vertical-align: middle; border: 0.5pt solid rgb(191, 191, 191); text-wrap: nowrap; height: 34.5pt;&quot; class=&quot;xl173&quot; height=&quot;46&quot;&gt;09&lt;/td&gt;&lt;td style=&quot;padding-top: 1px; padding-right: 1px; padding-left: 1px; color: rgb(0, 32, 96); font-size: 8pt; font-family: Calibri, sans-serif; vertical-align: middle; border: 0.5pt solid rgb(191, 191, 191); text-wrap: nowrap;&quot; class=&quot;xl173&quot;&gt;CANOPER&lt;/td&gt;&lt;td style=&quot;padding-top: 1px; padding-right: 1px; padding-left: 1px; color: rgb(0, 32, 96); font-size: 8pt; font-family: Calibri, sans-serif; vertical-align: middle; border: 0.5pt solid rgb(191, 191, 191); text-wrap: nowrap; background: rgb(208, 208, 208);&quot; class=&quot;xl245&quot;&gt;CANAL MULT&amp;nbsp;&amp;nbsp;&amp;nbsp;&amp;nbsp;&amp;nbsp;&amp;nbsp;&amp;nbsp;&amp;nbsp;&amp;nbsp;&amp;nbsp;&lt;/td&gt;&lt;td style=&quot;padding-top: 1px; padding-right: 1px; padding-left: 1px; color: rgb(0, 32, 96); font-size: 8pt; font-family: Calibri, sans-serif; vertical-align: middle; border: 0.5pt solid rgb(191, 191, 191); text-wrap: nowrap; text-align: center;&quot; class=&quot;xl230&quot;&gt;2&lt;/td&gt;&lt;td style=&quot;padding-top: 1px; padding-right: 1px; padding-left: 1px; color: rgb(0, 32, 96); font-size: 8pt; font-family: Calibri, sans-serif; vertical-align: middle; border: 0.5pt solid rgb(191, 191, 191); text-wrap: nowrap;&quot; class=&quot;xl173&quot;&gt;Alfanumerico&lt;/td&gt;&lt;td style=&quot;padding-top: 1px; padding-right: 1px; padding-left: 1px; color: rgb(0, 32, 96); font-size: 8pt; font-family: Calibri, sans-serif; vertical-align: middle; border-top: 0.5pt solid rgb(191, 191, 191); border-right: none; border-bottom: 0.5pt solid rgb(191, 191, 191); border-left: 0.5pt solid rgb(191, 191, 191); border-image: initial; text-wrap: nowrap;&quot; class=&quot;xl237&quot;&gt;Opcional&lt;/td&gt;&lt;td style=&quot;padding-top: 1px; padding-right: 1px; padding-left: 1px; color: gray; font-size: 8pt; font-family: Calibri, sans-serif; vertical-align: middle; border-top: 0.5pt solid rgb(217, 217, 217); border-right: none; border-bottom: 0.5pt solid rgb(217, 217, 217); border-left: 0.5pt solid rgb(217, 217, 217); border-image: initial; width: 214pt;&quot; class=&quot;xl261&quot; width=&quot;285&quot;&gt;No se usa campo en esta transacción.&lt;/td&gt;&lt;td style=&quot;padding-top: 1px; padding-right: 1px; padding-left: 1px; font-size: 8pt; font-family: Calibri, sans-serif; vertical-align: middle; border: none; width: 241pt;&quot; class=&quot;xl242&quot; width=&quot;321&quot;&gt;Se requiere informar en espacios, ya que el canal así espera la trama, pero nosotros no lo informamos en ningún caso. Estos campos eran para un plan de hacer las transacciones multicanal, multiempresa, etc.&lt;/td&gt;&lt;/tr&gt;&lt;tr style=&quot;height: 36pt;&quot; height=&quot;48&quot;&gt;&lt;td style=&quot;padding-top: 1px; padding-right: 1px; padding-left: 1px; color: rgb(0, 32, 96); font-size: 8pt; font-family: Calibri, sans-serif; vertical-align: middle; border: 0.5pt solid rgb(191, 191, 191); text-wrap: nowrap; height: 36pt;&quot; class=&quot;xl173&quot; height=&quot;48&quot;&gt;10&lt;/td&gt;&lt;td style=&quot;padding-top: 1px; padding-right: 1px; padding-left: 1px; color: rgb(0, 32, 96); font-size: 8pt; font-family: Calibri, sans-serif; vertical-align: middle; border: 0.5pt solid rgb(191, 191, 191); text-wrap: nowrap;&quot; class=&quot;xl173&quot;&gt;CANCOME&lt;/td&gt;&lt;td style=&quot;padding-top: 1px; padding-right: 1px; padding-left: 1px; color: rgb(0, 32, 96); font-size: 8pt; font-family: Calibri, sans-serif; vertical-align: middle; border: 0.5pt solid rgb(191, 191, 191); text-wrap: nowrap; background: rgb(208, 208, 208);&quot; class=&quot;xl245&quot;&gt;CANAL COMER MULT&amp;nbsp;&amp;nbsp;&amp;nbsp;&amp;nbsp;&lt;/td&gt;&lt;td style=&quot;padding-top: 1px; padding-right: 1px; padding-left: 1px; color: rgb(0, 32, 96); font-size: 8pt; font-family: Calibri, sans-serif; vertical-align: middle; border: 0.5pt solid rgb(191, 191, 191); text-wrap: nowrap; text-align: center;&quot; class=&quot;xl230&quot;&gt;2&lt;/td&gt;&lt;td style=&quot;padding-top: 1px; padding-right: 1px; padding-left: 1px; color: rgb(0, 32, 96); font-size: 8pt; font-family: Calibri, sans-serif; vertical-align: middle; border: 0.5pt solid rgb(191, 191, 191); text-wrap: nowrap;&quot; class=&quot;xl173&quot;&gt;Alfanumerico&lt;/td&gt;&lt;td style=&quot;padding-top: 1px; padding-right: 1px; padding-left: 1px; color: rgb(0, 32, 96); font-size: 8pt; font-family: Calibri, sans-serif; vertical-align: middle; border-top: 0.5pt solid rgb(191, 191, 191); border-right: none; border-bottom: 0.5pt solid rgb(191, 191, 191); border-left: 0.5pt solid rgb(191, 191, 191); border-image: initial; text-wrap: nowrap;&quot; class=&quot;xl237&quot;&gt;Opcional&lt;/td&gt;&lt;td style=&quot;padding-top: 1px; padding-right: 1px; padding-left: 1px; color: gray; font-size: 8pt; font-family: Calibri, sans-serif; vertical-align: middle; border-top: 0.5pt solid rgb(217, 217, 217); border-right: none; border-bottom: 0.5pt solid rgb(217, 217, 217); border-left: 0.5pt solid rgb(217, 217, 217); border-image: initial; width: 214pt;&quot; class=&quot;xl261&quot; width=&quot;285&quot;&gt;No se usa campo en esta transacción.&lt;/td&gt;&lt;td style=&quot;padding-top: 1px; padding-right: 1px; padding-left: 1px; font-size: 8pt; font-family: Calibri, sans-serif; vertical-align: middle; border: none; width: 241pt;&quot; class=&quot;xl242&quot; width=&quot;321&quot;&gt;Se requiere informar en espacios, ya que el canal así espera la trama, pero nosotros no lo informamos en ningún caso. Estos campos eran para un plan de hacer las transacciones multicanal, multiempresa, etc.&lt;/td&gt;&lt;/tr&gt;&lt;tr style=&quot;height: 42pt;&quot; height=&quot;56&quot;&gt;&lt;td style=&quot;padding-top: 1px; padding-right: 1px; padding-left: 1px; color: rgb(0, 32, 96); font-size: 8pt; font-family: Calibri, sans-serif; vertical-align: middle; border: 0.5pt solid rgb(191, 191, 191); text-wrap: nowrap; height: 42pt;&quot; class=&quot;xl173&quot; height=&quot;56&quot;&gt;11&lt;/td&gt;&lt;td style=&quot;padding-top: 1px; padding-right: 1px; padding-left: 1px; color: rgb(0, 32, 96); font-size: 8pt; font-family: Calibri, sans-serif; vertical-align: middle; border: 0.5pt solid rgb(191, 191, 191); text-wrap: nowrap;&quot; class=&quot;xl173&quot;&gt;NUMREFF&lt;/td&gt;&lt;td style=&quot;padding-top: 1px; padding-right: 1px; padding-left: 1px; color: rgb(0, 32, 96); font-size: 8pt; font-family: Calibri, sans-serif; vertical-align: middle; border: 0.5pt solid rgb(191, 191, 191); text-wrap: nowrap;&quot; class=&quot;xl173&quot;&gt;NUM. REFER. FAC&amp;nbsp;&amp;nbsp;&amp;nbsp;&amp;nbsp;&amp;nbsp;&lt;/td&gt;&lt;td style=&quot;padding-top: 1px; padding-right: 1px; padding-left: 1px; color: rgb(0, 32, 96); font-size: 8pt; font-family: Calibri, sans-serif; vertical-align: middle; border: 0.5pt solid rgb(191, 191, 191); text-wrap: nowrap; text-align: center;&quot; class=&quot;xl230&quot;&gt;23&lt;/td&gt;&lt;td style=&quot;padding-top: 1px; padding-right: 1px; padding-left: 1px; color: rgb(0, 32, 96); font-size: 8pt; font-family: Calibri, sans-serif; vertical-align: middle; border: 0.5pt solid rgb(191, 191, 191); text-wrap: nowrap;&quot; class=&quot;xl173&quot;&gt;Alfanumerico&lt;/td&gt;&lt;td style=&quot;padding-top: 1px; padding-right: 1px; padding-left: 1px; color: rgb(0, 32, 96); font-size: 8pt; font-family: Calibri, sans-serif; vertical-align: middle; border-top: 0.5pt solid rgb(191, 191, 191); border-right: none; border-bottom: 0.5pt solid rgb(191, 191, 191); border-left: 0.5pt solid rgb(191, 191, 191); border-image: initial; text-wrap: nowrap;&quot; class=&quot;xl237&quot;&gt;Salida&lt;/td&gt;&lt;td style=&quot;padding-top: 1px; padding-right: 1px; padding-left: 1px; color: rgb(0, 112, 192); font-size: 8pt; font-family: Calibri, sans-serif; vertical-align: middle; border-top: 0.5pt solid rgb(217, 217, 217); border-right: none; border-bottom: 0.5pt solid rgb(217, 217, 217); border-left: 0.5pt solid rgb(217, 217, 217); border-image: initial; width: 214pt;&quot; class=&quot;xl253&quot; width=&quot;285&quot;&gt;Salida. Para CREDITO se obtiene de tabla movimientos del extracto &lt;span style=&quot;color: red; font-size: 8pt;&quot; class=&quot;font65&quot;&gt;MPDT012&lt;/span&gt;&lt;span style=&quot;font-size: 8pt;&quot; class=&quot;font66&quot;&gt;, para DEBITO se obtiene de tabla de movimientos &lt;/span&gt;&lt;span style=&quot;color: red; font-size: 8pt;&quot; class=&quot;font65&quot;&gt;MPDT090&lt;/span&gt;&lt;/td&gt;&lt;td style=&quot;padding-top: 1px; padding-right: 1px; padding-left: 1px; font-size: 8pt; font-family: Calibri, sans-serif; vertical-align: middle; border: none; width: 241pt;&quot; class=&quot;xl242&quot; width=&quot;321&quot;&gt;Número para identificar la operación, no es único. Sin embargo, muchas veces este número es con el que cuenta el cliente o comercio con el que identifican una operación, junto con el número de autorización y la tarjeta.&lt;/td&gt;&lt;/tr&gt;&lt;tr style=&quot;height: 36pt;&quot; height=&quot;48&quot;&gt;&lt;td style=&quot;padding-top: 1px; padding-right: 1px; padding-left: 1px; color: rgb(0, 32, 96); font-size: 8pt; font-family: Calibri, sans-serif; vertical-align: middle; border: 0.5pt solid rgb(191, 191, 191); text-wrap: nowrap; height: 36pt;&quot; class=&quot;xl173&quot; height=&quot;48&quot;&gt;12&lt;/td&gt;&lt;td style=&quot;padding-top: 1px; padding-right: 1px; padding-left: 1px; color: rgb(0, 32, 96); font-size: 8pt; font-family: Calibri, sans-serif; vertical-align: middle; border: 0.5pt solid rgb(191, 191, 191); text-wrap: nowrap;&quot; class=&quot;xl173&quot;&gt;TIPOFAC&lt;/td&gt;&lt;td style=&quot;padding-top: 1px; padding-right: 1px; padding-left: 1px; color: rgb(0, 32, 96); font-size: 8pt; font-family: Calibri, sans-serif; vertical-align: middle; border: 0.5pt solid rgb(191, 191, 191); text-wrap: nowrap; background: yellow;&quot; class=&quot;xl243&quot;&gt;TIPO DE FACTURA&amp;nbsp;&amp;nbsp;&amp;nbsp;&amp;nbsp;&amp;nbsp;&lt;/td&gt;&lt;td style=&quot;padding-top: 1px; padding-right: 1px; padding-left: 1px; color: rgb(0, 32, 96); font-size: 8pt; font-family: Calibri, sans-serif; vertical-align: middle; border: 0.5pt solid rgb(191, 191, 191); text-wrap: nowrap; text-align: center;&quot; class=&quot;xl230&quot;&gt;4&lt;/td&gt;&lt;td style=&quot;padding-top: 1px; padding-right: 1px; padding-left: 1px; color: rgb(0, 32, 96); font-size: 8pt; font-family: Calibri, sans-serif; vertical-align: middle; border: 0.5pt solid rgb(191, 191, 191); width: 48pt;&quot; class=&quot;xl224&quot; width=&quot;64&quot;&gt;Numerico sin signo, por defecto Ceros.&lt;/td&gt;&lt;td style=&quot;padding-top: 1px; padding-right: 1px; padding-left: 1px; color: rgb(0, 32, 96); font-size: 8pt; font-family: Calibri, sans-serif; vertical-align: middle; border-top: 0.5pt solid rgb(191, 191, 191); border-right: none; border-bottom: 0.5pt solid rgb(191, 191, 191); border-left: 0.5pt solid rgb(191, 191, 191); border-image: initial; text-wrap: nowrap;&quot; class=&quot;xl237&quot;&gt;Salida&lt;/td&gt;&lt;td style=&quot;padding-top: 1px; padding-right: 1px; padding-left: 1px; color: rgb(0, 112, 192); font-size: 8pt; font-family: Calibri, sans-serif; vertical-align: middle; border-top: 0.5pt solid rgb(217, 217, 217); border-right: none; border-bottom: 0.5pt solid rgb(217, 217, 217); border-left: 0.5pt solid rgb(217, 217, 217); border-image: initial; width: 214pt;&quot; class=&quot;xl253&quot; width=&quot;285&quot;&gt;Salida. Para CREDITO se obtiene de tabla movimientos del extracto &lt;span style=&quot;color: red; font-size: 8pt;&quot; class=&quot;font65&quot;&gt;MPDT012&lt;/span&gt;&lt;span style=&quot;font-size: 8pt;&quot; class=&quot;font66&quot;&gt;, para DEBITO se obtiene de tabla de movimientos &lt;/span&gt;&lt;span style=&quot;color: red; font-size: 8pt;&quot; class=&quot;font65&quot;&gt;MPDT090&lt;/span&gt;&lt;/td&gt;&lt;td style=&quot;padding-top: 1px; padding-right: 1px; padding-left: 1px; font-size: 8pt; font-family: Calibri, sans-serif; vertical-align: middle; border: none; width: 241pt;&quot; class=&quot;xl242&quot; width=&quot;321&quot;&gt;Es un código con el que se identifica la operación realizada, o como se factura, este código esta parametrizado en la tabla de facturas MPDT044. ejemplo:&lt;/td&gt;&lt;/tr&gt;&lt;/tbody&gt;&lt;/table&gt;&lt;/div&gt;" style="rounded=0;whiteSpace=wrap;html=1;" parent="1" vertex="1">
          <mxGeometry x="565" y="3727.11" width="981" height="588.89" as="geometry" />
        </mxCell>
        <mxCell id="C3mcdrV-Wh8sYGgw7Lf8-2" value="Formato de Entrada y Salida: LMMCPJ10" style="rounded=0;whiteSpace=wrap;html=1;fillColor=#EEEEEE;strokeColor=#23445d;fontSize=14;fontStyle=1;align=left;" parent="1" vertex="1">
          <mxGeometry x="565" y="3688" width="981" height="39.11" as="geometry" />
        </mxCell>
        <mxCell id="C3mcdrV-Wh8sYGgw7Lf8-3" value="&lt;div style=&quot;font-size: medium; text-align: start;&quot; data-ccp-timestamp=&quot;1745010335645&quot;&gt;&lt;table style=&quot;border-collapse: collapse; width: 583pt;&quot; width=&quot;777&quot;&gt;&lt;colgroup&gt;&lt;col style=&quot;width: 65pt;&quot; width=&quot;87&quot;&gt;&lt;col style=&quot;width: 74pt;&quot; width=&quot;98&quot;&gt;&lt;col style=&quot;width: 34pt;&quot; width=&quot;45&quot;&gt;&lt;col style=&quot;width: 68pt;&quot; width=&quot;90&quot;&gt;&lt;col style=&quot;width: 27pt;&quot; width=&quot;36&quot;&gt;&lt;col style=&quot;width: 36pt;&quot; width=&quot;48&quot;&gt;&lt;col style=&quot;width: 56pt;&quot; width=&quot;75&quot;&gt;&lt;col style=&quot;width: 48pt;&quot; width=&quot;64&quot;&gt;&lt;col style=&quot;width: 176pt;&quot; width=&quot;234&quot;&gt;&lt;/colgroup&gt;&lt;tbody&gt;&lt;tr style=&quot;height: 15pt;&quot; height=&quot;20&quot;&gt;&lt;td style=&quot;padding-top: 1px; padding-right: 1px; padding-left: 1px; font-size: 9pt; font-weight: 700; font-family: Calibri, sans-serif; vertical-align: middle; border-top: 0.5pt solid black; border-right: 0.5pt solid black; border-bottom: none; border-left: 0.5pt solid black; border-image: initial; text-wrap: nowrap; background: rgb(217, 225, 242); width: 65pt; height: 15pt;&quot; class=&quot;xl96&quot; height=&quot;20&quot; width=&quot;87&quot;&gt;API&lt;/td&gt;&lt;td style=&quot;padding-top: 1px; padding-right: 1px; padding-left: 1px; font-size: 9pt; font-weight: 700; font-family: Calibri, sans-serif; vertical-align: middle; border-top: 0.5pt solid black; border-right: 0.5pt solid black; border-bottom: none; border-left: 0.5pt solid black; border-image: initial; text-wrap: nowrap; background: rgb(217, 225, 242); width: 74pt;&quot; class=&quot;xl96&quot; width=&quot;98&quot;&gt;Endpoint&lt;/td&gt;&lt;td style=&quot;padding-top: 1px; padding-right: 1px; padding-left: 1px; font-size: 9pt; font-weight: 700; font-family: Calibri, sans-serif; vertical-align: middle; border-top: 0.5pt solid black; border-right: 0.5pt solid black; border-bottom: none; border-left: 0.5pt solid black; border-image: initial; text-wrap: nowrap; background: rgb(217, 225, 242); width: 34pt;&quot; class=&quot;xl96&quot; width=&quot;45&quot;&gt;Método&lt;/td&gt;&lt;td style=&quot;padding-top: 1px; padding-right: 1px; padding-left: 1px; font-size: 9pt; font-weight: 700; font-family: Calibri, sans-serif; vertical-align: middle; border-top: 0.5pt solid black; border-right: 0.5pt solid black; border-bottom: none; border-left: 0.5pt solid black; border-image: initial; text-wrap: nowrap; background: rgb(217, 225, 242); width: 68pt;&quot; class=&quot;xl96&quot; width=&quot;90&quot;&gt;Campo&lt;/td&gt;&lt;td style=&quot;padding-top: 1px; padding-right: 1px; padding-left: 1px; font-size: 9pt; font-weight: 700; font-family: Calibri, sans-serif; vertical-align: middle; border-top: 0.5pt solid black; border-right: 0.5pt solid black; border-bottom: none; border-left: 0.5pt solid black; border-image: initial; text-wrap: nowrap; background: rgb(217, 225, 242); width: 27pt;&quot; class=&quot;xl96&quot; width=&quot;36&quot;&gt;LNG&lt;/td&gt;&lt;td style=&quot;padding-top: 1px; padding-right: 1px; padding-left: 1px; font-size: 9pt; font-weight: 700; font-family: Calibri, sans-serif; vertical-align: middle; border-top: 0.5pt solid black; border-right: 0.5pt solid black; border-bottom: none; border-left: 0.5pt solid black; border-image: initial; text-wrap: nowrap; background: rgb(217, 225, 242); width: 36pt;&quot; class=&quot;xl96&quot; width=&quot;48&quot;&gt;TIPO&lt;/td&gt;&lt;td style=&quot;padding-top: 1px; padding-right: 1px; padding-left: 1px; font-size: 9pt; font-weight: 700; font-family: Calibri, sans-serif; vertical-align: middle; border-top: 0.5pt solid black; border-right: 0.5pt solid black; border-bottom: none; border-left: 0.5pt solid black; border-image: initial; text-wrap: nowrap; background: rgb(217, 225, 242); width: 56pt;&quot; class=&quot;xl96&quot; width=&quot;75&quot;&gt;DESCRIPCIÓN&lt;/td&gt;&lt;td style=&quot;padding-top: 1px; padding-right: 1px; padding-left: 1px; font-size: 9pt; font-weight: 700; font-family: Calibri, sans-serif; vertical-align: middle; border-top: 0.5pt solid black; border-right: 0.5pt solid black; border-bottom: none; border-left: 0.5pt solid black; border-image: initial; text-wrap: nowrap; background: rgb(217, 225, 242); width: 48pt;&quot; class=&quot;xl96&quot; width=&quot;64&quot;&gt;USO&lt;/td&gt;&lt;td style=&quot;padding-top: 1px; padding-right: 1px; padding-left: 1px; font-size: 9pt; font-weight: 700; font-family: Calibri, sans-serif; vertical-align: middle; border-top: 0.5pt solid black; border-right: 0.5pt solid black; border-bottom: none; border-left: 0.5pt solid black; border-image: initial; text-wrap: nowrap; background: rgb(217, 225, 242); width: 176pt;&quot; class=&quot;xl96&quot; width=&quot;234&quot;&gt;OBSERVACIONES&lt;/td&gt;&lt;/tr&gt;&lt;tr style=&quot;height: 15pt;&quot; height=&quot;20&quot;&gt;&lt;td style=&quot;padding-top: 1px; padding-right: 1px; padding-left: 1px; font-size: 9pt; font-family: Calibri, sans-serif; vertical-align: bottom; border: 0.5pt solid black; text-wrap: nowrap; background: yellow; height: 15pt;&quot; class=&quot;xl101&quot; height=&quot;20&quot;&gt;&lt;/td&gt;&lt;td style=&quot;padding-top: 1px; padding-right: 1px; padding-left: 1px; font-size: 9pt; font-family: Calibri, sans-serif; vertical-align: bottom; border: 0.5pt solid black; text-wrap: nowrap; background: yellow;&quot; class=&quot;xl101&quot;&gt;&lt;/td&gt;&lt;td style=&quot;padding-top: 1px; padding-right: 1px; padding-left: 1px; font-size: 9pt; font-family: Calibri, sans-serif; vertical-align: bottom; border: 0.5pt solid black; text-wrap: nowrap; background: yellow;&quot; class=&quot;xl101&quot;&gt;&lt;/td&gt;&lt;td style=&quot;padding-top: 1px; padding-right: 1px; padding-left: 1px; font-size: 9pt; font-family: Calibri, sans-serif; vertical-align: bottom; border: 0.5pt solid black; text-wrap: nowrap; background: yellow;&quot; class=&quot;xl101&quot;&gt;&lt;/td&gt;&lt;td style=&quot;padding-top: 1px; padding-right: 1px; padding-left: 1px; font-size: 9pt; font-family: Calibri, sans-serif; vertical-align: bottom; border: 0.5pt solid black; text-wrap: nowrap; background: yellow;&quot; class=&quot;xl101&quot;&gt;&lt;/td&gt;&lt;td style=&quot;padding-top: 1px; padding-right: 1px; padding-left: 1px; font-size: 9pt; font-family: Calibri, sans-serif; vertical-align: bottom; border: 0.5pt solid black; text-wrap: nowrap; background: yellow;&quot; class=&quot;xl101&quot;&gt;&lt;/td&gt;&lt;td style=&quot;padding-top: 1px; padding-right: 1px; padding-left: 1px; font-size: 9pt; font-family: Calibri, sans-serif; vertical-align: bottom; border: 0.5pt solid black; text-wrap: nowrap; background: yellow;&quot; class=&quot;xl101&quot;&gt;&lt;/td&gt;&lt;td style=&quot;padding-top: 1px; padding-right: 1px; padding-left: 1px; font-size: 9pt; font-family: Calibri, sans-serif; vertical-align: bottom; border: 0.5pt solid black; text-wrap: nowrap; background: yellow;&quot; class=&quot;xl101&quot;&gt;&lt;/td&gt;&lt;td style=&quot;padding-top: 1px; padding-right: 1px; padding-left: 1px; font-size: 9pt; font-family: Calibri, sans-serif; vertical-align: bottom; border: 0.5pt solid black; background: yellow; width: 176pt;&quot; class=&quot;xl179&quot; width=&quot;234&quot;&gt;El mismo valor de la entrada&lt;/td&gt;&lt;/tr&gt;&lt;tr style=&quot;height: 15pt;&quot; height=&quot;20&quot;&gt;&lt;td style=&quot;padding-top: 1px; padding-right: 1px; padding-left: 1px; font-size: 9pt; font-family: Calibri, sans-serif; vertical-align: bottom; border: 0.5pt solid black; text-wrap: nowrap; background: yellow; height: 15pt;&quot; class=&quot;xl101&quot; height=&quot;20&quot;&gt;Device Life Cycle&lt;/td&gt;&lt;td style=&quot;padding-top: 1px; padding-right: 1px; padding-left: 1px; font-size: 9pt; font-family: Calibri, sans-serif; vertical-align: bottom; border: 0.5pt solid black; text-wrap: nowrap; background: yellow;&quot; class=&quot;xl101&quot;&gt;/v3/devices/blocks&lt;/td&gt;&lt;td style=&quot;padding-top: 1px; padding-right: 1px; padding-left: 1px; font-size: 9pt; font-family: Calibri, sans-serif; vertical-align: bottom; border: 0.5pt solid black; text-wrap: nowrap; background: yellow;&quot; class=&quot;xl101&quot;&gt;GET&lt;/td&gt;&lt;td style=&quot;padding-top: 1px; padding-right: 1px; padding-left: 1px; color: rgb(0, 112, 192); font-size: 9pt; font-weight: 700; font-family: Calibri, sans-serif; vertical-align: bottom; border: 0.5pt solid black; text-wrap: nowrap; background: yellow;&quot; class=&quot;xl180&quot;&gt;importance&lt;/td&gt;&lt;td style=&quot;padding-top: 1px; padding-right: 1px; padding-left: 1px; font-size: 9pt; font-family: Calibri, sans-serif; vertical-align: bottom; border: 0.5pt solid black; text-wrap: nowrap; background: yellow;&quot; align=&quot;right&quot; class=&quot;xl101&quot;&gt;2&lt;/td&gt;&lt;td style=&quot;padding-top: 1px; padding-right: 1px; padding-left: 1px; font-size: 9pt; font-family: Calibri, sans-serif; vertical-align: bottom; border: 0.5pt solid black; text-wrap: nowrap; background: yellow;&quot; class=&quot;xl101&quot;&gt;integer&lt;/td&gt;&lt;td style=&quot;padding-top: 1px; padding-right: 1px; padding-left: 1px; font-size: 9pt; font-family: Calibri, sans-serif; vertical-align: bottom; border: 0.5pt solid black; text-wrap: nowrap; background: yellow;&quot; class=&quot;xl101&quot;&gt;Importance&lt;/td&gt;&lt;td style=&quot;padding-top: 1px; padding-right: 1px; padding-left: 1px; font-size: 9pt; font-family: Calibri, sans-serif; vertical-align: bottom; border: 0.5pt solid black; text-wrap: nowrap; background: yellow;&quot; class=&quot;xl101&quot;&gt;Requerido&lt;/td&gt;&lt;td style=&quot;padding-top: 1px; padding-right: 1px; padding-left: 1px; font-size: 9pt; font-family: Calibri, sans-serif; vertical-align: bottom; border: 0.5pt solid black; text-wrap: nowrap; background: yellow;&quot; class=&quot;xl101&quot;&gt;&lt;/td&gt;&lt;/tr&gt;&lt;tr style=&quot;height: 15pt;&quot; height=&quot;20&quot;&gt;&lt;td style=&quot;padding-top: 1px; padding-right: 1px; padding-left: 1px; font-size: 9pt; font-family: Calibri, sans-serif; vertical-align: bottom; border: 0.5pt solid black; text-wrap: nowrap; height: 15pt;&quot; class=&quot;xl102&quot; height=&quot;20&quot;&gt;&lt;/td&gt;&lt;td style=&quot;padding-top: 1px; padding-right: 1px; padding-left: 1px; font-size: 9pt; font-family: Calibri, sans-serif; vertical-align: bottom; border: 0.5pt solid black; text-wrap: nowrap;&quot; class=&quot;xl102&quot;&gt;&lt;/td&gt;&lt;td style=&quot;padding-top: 1px; padding-right: 1px; padding-left: 1px; font-size: 9pt; font-family: Calibri, sans-serif; vertical-align: bottom; border: 0.5pt solid black; text-wrap: nowrap;&quot; class=&quot;xl102&quot;&gt;&lt;/td&gt;&lt;td style=&quot;padding-top: 1px; padding-right: 1px; padding-left: 1px; color: rgb(0, 112, 192); font-size: 9pt; font-weight: 700; font-family: Calibri, sans-serif; vertical-align: bottom; border: 0.5pt solid black; text-wrap: nowrap;&quot; class=&quot;xl103&quot;&gt;&lt;/td&gt;&lt;td style=&quot;padding-top: 1px; padding-right: 1px; padding-left: 1px; font-size: 9pt; font-family: Calibri, sans-serif; vertical-align: bottom; border: 0.5pt solid black; text-wrap: nowrap;&quot; class=&quot;xl102&quot;&gt;&lt;/td&gt;&lt;td style=&quot;padding-top: 1px; padding-right: 1px; padding-left: 1px; font-size: 9pt; font-family: Calibri, sans-serif; vertical-align: bottom; border: 0.5pt solid black; text-wrap: nowrap;&quot; class=&quot;xl102&quot;&gt;&lt;/td&gt;&lt;td style=&quot;padding-top: 1px; padding-right: 1px; padding-left: 1px; font-size: 9pt; font-family: Calibri, sans-serif; vertical-align: bottom; border: 0.5pt solid black; text-wrap: nowrap;&quot; class=&quot;xl102&quot;&gt;&lt;/td&gt;&lt;td style=&quot;padding-top: 1px; padding-right: 1px; padding-left: 1px; font-size: 9pt; font-family: Calibri, sans-serif; vertical-align: bottom; border: 0.5pt solid black; text-wrap: nowrap;&quot; class=&quot;xl102&quot;&gt;&lt;/td&gt;&lt;td style=&quot;padding-top: 1px; padding-right: 1px; padding-left: 1px; font-size: 9pt; font-family: Calibri, sans-serif; vertical-align: bottom; border: 0.5pt solid black; text-wrap: nowrap;&quot; class=&quot;xl102&quot;&gt;&lt;/td&gt;&lt;/tr&gt;&lt;tr style=&quot;height: 15pt;&quot; height=&quot;20&quot;&gt;&lt;td style=&quot;padding-top: 1px; padding-right: 1px; padding-left: 1px; font-size: 9pt; font-family: Calibri, sans-serif; vertical-align: bottom; border: 0.5pt solid black; text-wrap: nowrap; height: 15pt;&quot; class=&quot;xl102&quot; height=&quot;20&quot;&gt;&lt;/td&gt;&lt;td style=&quot;padding-top: 1px; padding-right: 1px; padding-left: 1px; font-size: 9pt; font-family: Calibri, sans-serif; vertical-align: bottom; border: 0.5pt solid black; text-wrap: nowrap;&quot; class=&quot;xl102&quot;&gt;&lt;/td&gt;&lt;td style=&quot;padding-top: 1px; padding-right: 1px; padding-left: 1px; font-size: 9pt; font-family: Calibri, sans-serif; vertical-align: bottom; border: 0.5pt solid black; text-wrap: nowrap;&quot; class=&quot;xl102&quot;&gt;&lt;/td&gt;&lt;td style=&quot;padding-top: 1px; padding-right: 1px; padding-left: 1px; color: rgb(0, 112, 192); font-size: 9pt; font-weight: 700; font-family: Calibri, sans-serif; vertical-align: bottom; border: 0.5pt solid black; text-wrap: nowrap;&quot; class=&quot;xl103&quot;&gt;&lt;/td&gt;&lt;td style=&quot;padding-top: 1px; padding-right: 1px; padding-left: 1px; font-size: 9pt; font-family: Calibri, sans-serif; vertical-align: bottom; border: 0.5pt solid black; text-wrap: nowrap;&quot; class=&quot;xl102&quot;&gt;&lt;/td&gt;&lt;td style=&quot;padding-top: 1px; padding-right: 1px; padding-left: 1px; font-size: 9pt; font-family: Calibri, sans-serif; vertical-align: bottom; border: 0.5pt solid black; text-wrap: nowrap;&quot; class=&quot;xl102&quot;&gt;&lt;/td&gt;&lt;td style=&quot;padding-top: 1px; padding-right: 1px; padding-left: 1px; font-size: 9pt; font-family: Calibri, sans-serif; vertical-align: bottom; border: 0.5pt solid black; text-wrap: nowrap;&quot; class=&quot;xl102&quot;&gt;&lt;/td&gt;&lt;td style=&quot;padding-top: 1px; padding-right: 1px; padding-left: 1px; font-size: 9pt; font-family: Calibri, sans-serif; vertical-align: bottom; border: 0.5pt solid black; text-wrap: nowrap;&quot; class=&quot;xl102&quot;&gt;&lt;/td&gt;&lt;td style=&quot;padding-top: 1px; padding-right: 1px; padding-left: 1px; font-size: 9pt; font-family: Calibri, sans-serif; vertical-align: bottom; border: 0.5pt solid black; text-wrap: nowrap;&quot; class=&quot;xl102&quot;&gt;&lt;/td&gt;&lt;/tr&gt;&lt;tr style=&quot;height: 15pt;&quot; height=&quot;20&quot;&gt;&lt;td style=&quot;padding-top: 1px; padding-right: 1px; padding-left: 1px; font-size: 9pt; font-family: Calibri, sans-serif; vertical-align: bottom; border: 0.5pt solid black; text-wrap: nowrap; height: 15pt;&quot; class=&quot;xl102&quot; height=&quot;20&quot;&gt;Device Life Cycle&lt;/td&gt;&lt;td style=&quot;padding-top: 1px; padding-right: 1px; padding-left: 1px; font-size: 9pt; font-family: Calibri, sans-serif; vertical-align: bottom; border: 0.5pt solid black; text-wrap: nowrap;&quot; class=&quot;xl102&quot;&gt;/v3/devices/blocks&lt;/td&gt;&lt;td style=&quot;padding-top: 1px; padding-right: 1px; padding-left: 1px; font-size: 9pt; font-family: Calibri, sans-serif; vertical-align: bottom; border: 0.5pt solid black; text-wrap: nowrap;&quot; class=&quot;xl102&quot;&gt;GET&lt;/td&gt;&lt;td style=&quot;padding-top: 1px; padding-right: 1px; padding-left: 1px; color: rgb(0, 112, 192); font-size: 9pt; font-weight: 700; font-family: Calibri, sans-serif; vertical-align: bottom; border: 0.5pt solid black; text-wrap: nowrap;&quot; class=&quot;xl103&quot;&gt;blockCode&lt;/td&gt;&lt;td style=&quot;padding-top: 1px; padding-right: 1px; padding-left: 1px; font-size: 9pt; font-family: Calibri, sans-serif; vertical-align: bottom; border: 0.5pt solid black; text-wrap: nowrap;&quot; align=&quot;right&quot; class=&quot;xl102&quot;&gt;5&lt;/td&gt;&lt;td style=&quot;padding-top: 1px; padding-right: 1px; padding-left: 1px; font-size: 9pt; font-family: Calibri, sans-serif; vertical-align: bottom; border: 0.5pt solid black; text-wrap: nowrap;&quot; class=&quot;xl102&quot;&gt;integer&lt;/td&gt;&lt;td style=&quot;padding-top: 1px; padding-right: 1px; padding-left: 1px; font-size: 9pt; font-family: Calibri, sans-serif; vertical-align: bottom; border: 0.5pt solid black; text-wrap: nowrap;&quot; class=&quot;xl102&quot;&gt;Block Code&lt;/td&gt;&lt;td style=&quot;padding-top: 1px; padding-right: 1px; padding-left: 1px; font-size: 9pt; font-family: Calibri, sans-serif; vertical-align: bottom; border: 0.5pt solid black; text-wrap: nowrap;&quot; class=&quot;xl102&quot;&gt;Requerido&lt;/td&gt;&lt;td style=&quot;padding-top: 1px; padding-right: 1px; padding-left: 1px; font-size: 9pt; font-family: Calibri, sans-serif; vertical-align: bottom; border: 0.5pt solid black; width: 176pt;&quot; class=&quot;xl181&quot; width=&quot;234&quot;&gt;&lt;/td&gt;&lt;/tr&gt;&lt;tr style=&quot;height: 15pt;&quot; height=&quot;20&quot;&gt;&lt;td style=&quot;padding-top: 1px; padding-right: 1px; padding-left: 1px; font-size: 9pt; font-family: Calibri, sans-serif; vertical-align: bottom; border: 0.5pt solid black; text-wrap: nowrap; height: 15pt;&quot; class=&quot;xl102&quot; height=&quot;20&quot;&gt;Device Life Cycle&lt;/td&gt;&lt;td style=&quot;padding-top: 1px; padding-right: 1px; padding-left: 1px; font-size: 9pt; font-family: Calibri, sans-serif; vertical-align: bottom; border: 0.5pt solid black; text-wrap: nowrap;&quot; class=&quot;xl102&quot;&gt;/v3/devices/blocks&lt;/td&gt;&lt;td style=&quot;padding-top: 1px; padding-right: 1px; padding-left: 1px; font-size: 9pt; font-family: Calibri, sans-serif; vertical-align: bottom; border: 0.5pt solid black; text-wrap: nowrap;&quot; class=&quot;xl102&quot;&gt;GET&lt;/td&gt;&lt;td style=&quot;padding-top: 1px; padding-right: 1px; padding-left: 1px; color: rgb(0, 112, 192); font-size: 9pt; font-weight: 700; font-family: Calibri, sans-serif; vertical-align: bottom; border: 0.5pt solid black; text-wrap: nowrap;&quot; class=&quot;xl103&quot;&gt;lastUpdate&lt;/td&gt;&lt;td style=&quot;padding-top: 1px; padding-right: 1px; padding-left: 1px; font-size: 9pt; font-family: Calibri, sans-serif; vertical-align: bottom; border: 0.5pt solid black; text-wrap: nowrap;&quot; align=&quot;right&quot; class=&quot;xl102&quot;&gt;28&lt;/td&gt;&lt;td style=&quot;padding-top: 1px; padding-right: 1px; padding-left: 1px; font-size: 9pt; font-family: Calibri, sans-serif; vertical-align: bottom; border: 0.5pt solid black; text-wrap: nowrap;&quot; class=&quot;xl102&quot;&gt;string&lt;/td&gt;&lt;td style=&quot;padding-top: 1px; padding-right: 1px; padding-left: 1px; font-size: 9pt; font-family: Calibri, sans-serif; vertical-align: bottom; border: 0.5pt solid black; text-wrap: nowrap;&quot; class=&quot;xl102&quot;&gt;Field that indicates the date of the last update&lt;/td&gt;&lt;td style=&quot;padding-top: 1px; padding-right: 1px; padding-left: 1px; font-size: 9pt; font-family: Calibri, sans-serif; vertical-align: bottom; border: 0.5pt solid black; text-wrap: nowrap;&quot; class=&quot;xl102&quot;&gt;Requerido&lt;/td&gt;&lt;td style=&quot;padding-top: 1px; padding-right: 1px; padding-left: 1px; font-size: 9pt; font-family: Calibri, sans-serif; vertical-align: bottom; border: 0.5pt solid black; width: 176pt;&quot; class=&quot;xl181&quot; width=&quot;234&quot;&gt;Ejemplo: 2022-12-14T15:39:32.662882&lt;/td&gt;&lt;/tr&gt;&lt;tr style=&quot;height: 15pt;&quot; height=&quot;20&quot;&gt;&lt;td style=&quot;padding-top: 1px; padding-right: 1px; padding-left: 1px; font-size: 9pt; font-family: Calibri, sans-serif; vertical-align: bottom; border: 0.5pt solid black; text-wrap: nowrap; height: 15pt;&quot; class=&quot;xl102&quot; height=&quot;20&quot;&gt;Device Life Cycle&lt;/td&gt;&lt;td style=&quot;padding-top: 1px; padding-right: 1px; padding-left: 1px; font-size: 9pt; font-family: Calibri, sans-serif; vertical-align: bottom; border: 0.5pt solid black; text-wrap: nowrap;&quot; class=&quot;xl102&quot;&gt;/v3/devices/blocks&lt;/td&gt;&lt;td style=&quot;padding-top: 1px; padding-right: 1px; padding-left: 1px; font-size: 9pt; font-family: Calibri, sans-serif; vertical-align: bottom; border: 0.5pt solid black; text-wrap: nowrap;&quot; class=&quot;xl102&quot;&gt;GET&lt;/td&gt;&lt;td style=&quot;padding-top: 1px; padding-right: 1px; padding-left: 1px; color: rgb(0, 112, 192); font-size: 9pt; font-weight: 700; font-family: Calibri, sans-serif; vertical-align: bottom; border: 0.5pt solid black; text-wrap: nowrap;&quot; class=&quot;xl103&quot;&gt;blockDescription&lt;/td&gt;&lt;td style=&quot;padding-top: 1px; padding-right: 1px; padding-left: 1px; font-size: 9pt; font-family: Calibri, sans-serif; vertical-align: bottom; border: 0.5pt solid black; text-wrap: nowrap;&quot; align=&quot;right&quot; class=&quot;xl102&quot;&gt;30&lt;/td&gt;&lt;td style=&quot;padding-top: 1px; padding-right: 1px; padding-left: 1px; font-size: 9pt; font-family: Calibri, sans-serif; vertical-align: bottom; border: 0.5pt solid black; text-wrap: nowrap;&quot; class=&quot;xl102&quot;&gt;string&lt;/td&gt;&lt;td style=&quot;padding-top: 1px; padding-right: 1px; padding-left: 1px; font-size: 9pt; font-family: Calibri, sans-serif; vertical-align: bottom; border: 0.5pt solid black; text-wrap: nowrap;&quot; class=&quot;xl102&quot;&gt;Block Description&lt;/td&gt;&lt;td style=&quot;padding-top: 1px; padding-right: 1px; padding-left: 1px; font-size: 9pt; font-family: Calibri, sans-serif; vertical-align: bottom; border: 0.5pt solid black; text-wrap: nowrap;&quot; class=&quot;xl102&quot;&gt;Requerido&lt;/td&gt;&lt;td style=&quot;padding-top: 1px; padding-right: 1px; padding-left: 1px; font-size: 9pt; font-family: Calibri, sans-serif; vertical-align: bottom; border: 0.5pt solid black; width: 176pt;&quot; class=&quot;xl181&quot; width=&quot;234&quot;&gt;&lt;/td&gt;&lt;/tr&gt;&lt;tr style=&quot;height: 15pt;&quot; height=&quot;20&quot;&gt;&lt;td style=&quot;padding-top: 1px; padding-right: 1px; padding-left: 1px; font-size: 9pt; font-family: Calibri, sans-serif; vertical-align: bottom; border: 0.5pt solid black; text-wrap: nowrap; height: 15pt;&quot; class=&quot;xl102&quot; height=&quot;20&quot;&gt;&lt;/td&gt;&lt;td style=&quot;padding-top: 1px; padding-right: 1px; padding-left: 1px; font-size: 9pt; font-family: Calibri, sans-serif; vertical-align: bottom; border: 0.5pt solid black; text-wrap: nowrap;&quot; class=&quot;xl102&quot;&gt;&lt;/td&gt;&lt;td style=&quot;padding-top: 1px; padding-right: 1px; padding-left: 1px; font-size: 9pt; font-family: Calibri, sans-serif; vertical-align: bottom; border: 0.5pt solid black; text-wrap: nowrap;&quot; class=&quot;xl102&quot;&gt;&lt;/td&gt;&lt;td style=&quot;padding-top: 1px; padding-right: 1px; padding-left: 1px; font-size: 9pt; font-family: Calibri, sans-serif; vertical-align: bottom; border: 0.5pt solid black; text-wrap: nowrap;&quot; class=&quot;xl102&quot;&gt;&lt;/td&gt;&lt;td style=&quot;padding-top: 1px; padding-right: 1px; padding-left: 1px; font-size: 9pt; font-family: Calibri, sans-serif; vertical-align: bottom; border: 0.5pt solid black; text-wrap: nowrap;&quot; class=&quot;xl102&quot;&gt;&lt;/td&gt;&lt;td style=&quot;padding-top: 1px; padding-right: 1px; padding-left: 1px; font-size: 9pt; font-family: Calibri, sans-serif; vertical-align: bottom; border: 0.5pt solid black; text-wrap: nowrap;&quot; class=&quot;xl102&quot;&gt;&lt;/td&gt;&lt;td style=&quot;padding-top: 1px; padding-right: 1px; padding-left: 1px; font-size: 9pt; font-family: Calibri, sans-serif; vertical-align: bottom; border: 0.5pt solid black; text-wrap: nowrap;&quot; class=&quot;xl102&quot;&gt;&lt;/td&gt;&lt;td style=&quot;padding-top: 1px; padding-right: 1px; padding-left: 1px; font-size: 9pt; font-family: Calibri, sans-serif; vertical-align: bottom; border: 0.5pt solid black; text-wrap: nowrap;&quot; class=&quot;xl102&quot;&gt;&lt;/td&gt;&lt;td style=&quot;padding-top: 1px; padding-right: 1px; padding-left: 1px; font-size: 9pt; font-family: Calibri, sans-serif; vertical-align: bottom; border: 0.5pt solid black; text-wrap: nowrap;&quot; class=&quot;xl102&quot;&gt;&lt;/td&gt;&lt;/tr&gt;&lt;tr style=&quot;height: 15pt;&quot; height=&quot;20&quot;&gt;&lt;td style=&quot;padding-top: 1px; padding-right: 1px; padding-left: 1px; font-size: 9pt; font-family: Calibri, sans-serif; vertical-align: bottom; border: 0.5pt solid black; text-wrap: nowrap; height: 15pt;&quot; class=&quot;xl102&quot; height=&quot;20&quot;&gt;&lt;/td&gt;&lt;td style=&quot;padding-top: 1px; padding-right: 1px; padding-left: 1px; font-size: 9pt; font-family: Calibri, sans-serif; vertical-align: bottom; border: 0.5pt solid black; text-wrap: nowrap;&quot; class=&quot;xl102&quot;&gt;&lt;/td&gt;&lt;td style=&quot;padding-top: 1px; padding-right: 1px; padding-left: 1px; font-size: 9pt; font-family: Calibri, sans-serif; vertical-align: bottom; border: 0.5pt solid black; text-wrap: nowrap;&quot; class=&quot;xl102&quot;&gt;&lt;/td&gt;&lt;td style=&quot;padding-top: 1px; padding-right: 1px; padding-left: 1px; font-size: 9pt; font-family: Calibri, sans-serif; vertical-align: bottom; border: 0.5pt solid black; text-wrap: nowrap;&quot; class=&quot;xl102&quot;&gt;&lt;/td&gt;&lt;td style=&quot;padding-top: 1px; padding-right: 1px; padding-left: 1px; font-size: 9pt; font-family: Calibri, sans-serif; vertical-align: bottom; border: 0.5pt solid black; text-wrap: nowrap;&quot; class=&quot;xl102&quot;&gt;&lt;/td&gt;&lt;td style=&quot;padding-top: 1px; padding-right: 1px; padding-left: 1px; font-size: 9pt; font-family: Calibri, sans-serif; vertical-align: bottom; border: 0.5pt solid black; text-wrap: nowrap;&quot; class=&quot;xl102&quot;&gt;&lt;/td&gt;&lt;td style=&quot;padding-top: 1px; padding-right: 1px; padding-left: 1px; font-size: 9pt; font-family: Calibri, sans-serif; vertical-align: bottom; border: 0.5pt solid black; text-wrap: nowrap;&quot; class=&quot;xl102&quot;&gt;&lt;/td&gt;&lt;td style=&quot;padding-top: 1px; padding-right: 1px; padding-left: 1px; font-size: 9pt; font-family: Calibri, sans-serif; vertical-align: bottom; border: 0.5pt solid black; text-wrap: nowrap;&quot; class=&quot;xl102&quot;&gt;&lt;/td&gt;&lt;td style=&quot;padding-top: 1px; padding-right: 1px; padding-left: 1px; font-size: 9pt; font-family: Calibri, sans-serif; vertical-align: bottom; border: 0.5pt solid black; text-wrap: nowrap;&quot; class=&quot;xl102&quot;&gt;&lt;/td&gt;&lt;/tr&gt;&lt;/tbody&gt;&lt;/table&gt;&lt;/div&gt;" style="rounded=0;whiteSpace=wrap;html=1;" parent="1" vertex="1">
          <mxGeometry x="1635" y="4035" width="791" height="259" as="geometry" />
        </mxCell>
        <mxCell id="C3mcdrV-Wh8sYGgw7Lf8-4" value="&lt;font style=&quot;font-size: 12px; background-color: light-dark(#ffffff, var(--ge-dark-color, #121212));&quot;&gt;&lt;span style=&quot;text-wrap: nowrap;&quot;&gt;Response: API&amp;nbsp;&lt;/span&gt;&lt;span style=&quot;color: rgb(36, 36, 36); font-family: &amp;quot;Aptos Narrow&amp;quot;, Calibri, &amp;quot;sans-serif&amp;quot;, &amp;quot;Mongolian Baiti&amp;quot;, &amp;quot;Microsoft Yi Baiti&amp;quot;, &amp;quot;Javanese Text&amp;quot;, &amp;quot;Yu Gothic&amp;quot;; white-space-collapse: preserve; background-color: rgb(255, 255, 255);&quot;&gt;Device Life Cycle&lt;/span&gt;&lt;br style=&quot;padding: 0px; margin: 0px; text-wrap: nowrap;&quot;&gt;&lt;/font&gt;&lt;div style=&quot;&quot;&gt;&lt;font style=&quot;font-size: 12px; background-color: light-dark(#ffffff, var(--ge-dark-color, #121212));&quot;&gt;&lt;span style=&quot;text-wrap: nowrap; color: light-dark(rgb(0, 0, 0), rgb(255, 255, 255));&quot;&gt;(&lt;/span&gt;&lt;span style=&quot;color: rgb(36, 36, 36); font-family: &amp;quot;Aptos Narrow&amp;quot;, Calibri, &amp;quot;sans-serif&amp;quot;, &amp;quot;Mongolian Baiti&amp;quot;, &amp;quot;Microsoft Yi Baiti&amp;quot;, &amp;quot;Javanese Text&amp;quot;, &amp;quot;Yu Gothic&amp;quot;; white-space-collapse: preserve; background-color: rgb(255, 255, 255);&quot;&gt;/v3/devices/blocks&lt;/span&gt;&lt;span style=&quot;text-wrap: nowrap; color: light-dark(rgb(0, 0, 0), rgb(255, 255, 255));&quot;&gt;)&lt;/span&gt;&lt;/font&gt;&lt;/div&gt;" style="rounded=0;whiteSpace=wrap;html=1;fillColor=#EEEEEE;strokeColor=#23445d;fontSize=14;fontStyle=1;align=center;" parent="1" vertex="1">
          <mxGeometry x="1635" y="3996" width="791" height="39.11" as="geometry" />
        </mxCell>
      </root>
    </mxGraphModel>
  </diagram>
</mxfile>
